<?xml version="1.0" encoding="UTF-8"?>
<svg id="Layer_1" data-name="Layer 1" xmlns="http://www.w3.org/2000/svg" viewBox="0 0 694.7 687.26">
  <defs>
    <style>
      .cls-1 {
        fill: #c7e2d5;
      }

      .cls-1, .cls-2, .cls-3, .cls-4, .cls-5, .cls-6, .cls-7, .cls-8, .cls-9, .cls-10, .cls-11, .cls-12, .cls-13, .cls-14, .cls-15, .cls-16, .cls-17, .cls-18, .cls-19, .cls-20, .cls-21, .cls-22, .cls-23, .cls-24, .cls-25, .cls-26, .cls-27, .cls-28, .cls-29, .cls-30, .cls-31, .cls-32, .cls-33, .cls-34, .cls-35, .cls-36, .cls-37, .cls-38, .cls-39, .cls-40, .cls-41, .cls-42, .cls-43, .cls-44, .cls-45, .cls-46, .cls-47, .cls-48, .cls-49, .cls-50, .cls-51, .cls-52, .cls-53, .cls-54, .cls-55, .cls-56, .cls-57, .cls-58, .cls-59, .cls-60, .cls-61, .cls-62, .cls-63, .cls-64, .cls-65, .cls-66, .cls-67, .cls-68, .cls-69, .cls-70, .cls-71, .cls-72, .cls-73, .cls-74, .cls-75, .cls-76, .cls-77, .cls-78, .cls-79, .cls-80, .cls-81, .cls-82, .cls-83, .cls-84, .cls-85, .cls-86, .cls-87, .cls-88, .cls-89, .cls-90, .cls-91, .cls-92, .cls-93, .cls-94, .cls-95, .cls-96, .cls-97, .cls-98, .cls-99, .cls-100, .cls-101, .cls-102, .cls-103, .cls-104, .cls-105, .cls-106, .cls-107, .cls-108, .cls-109, .cls-110, .cls-111, .cls-112, .cls-113, .cls-114, .cls-115, .cls-116, .cls-117, .cls-118, .cls-119, .cls-120, .cls-121, .cls-122, .cls-123, .cls-124, .cls-125, .cls-126, .cls-127, .cls-128, .cls-129, .cls-130, .cls-131, .cls-132, .cls-133, .cls-134, .cls-135, .cls-136, .cls-137, .cls-138, .cls-139, .cls-140, .cls-141, .cls-142, .cls-143, .cls-144, .cls-145, .cls-146, .cls-147, .cls-148, .cls-149, .cls-150, .cls-151, .cls-152, .cls-153, .cls-154, .cls-155, .cls-156, .cls-157, .cls-158, .cls-159, .cls-160, .cls-161, .cls-162, .cls-163, .cls-164, .cls-165, .cls-166, .cls-167, .cls-168, .cls-169, .cls-170, .cls-171, .cls-172, .cls-173, .cls-174, .cls-175, .cls-176, .cls-177, .cls-178, .cls-179, .cls-180, .cls-181, .cls-182, .cls-183, .cls-184, .cls-185, .cls-186, .cls-187, .cls-188 {
        stroke-width: 0px;
      }

      .cls-2 {
        fill: #36a886;
      }

      .cls-3 {
        fill: #397242;
      }

      .cls-4 {
        fill: #cfeadb;
      }

      .cls-5 {
        fill: #85c071;
      }

      .cls-6 {
        fill: #5da861;
      }

      .cls-7 {
        fill: #3a7552;
      }

      .cls-8 {
        fill: #2eb2ac;
      }

      .cls-9 {
        fill: #408c5f;
      }

      .cls-10 {
        fill: #34afa1;
      }

      .cls-11 {
        fill: #3cc1c0;
      }

      .cls-12 {
        fill: #3cc1c4;
      }

      .cls-13 {
        fill: #91b99f;
      }

      .cls-14 {
        fill: #3aa694;
      }

      .cls-15 {
        fill: #4fc0c2;
      }

      .cls-16 {
        fill: #33b3af;
      }

      .cls-17 {
        fill: #35723f;
      }

      .cls-18 {
        fill: #4ea567;
      }

      .cls-19 {
        fill: #35ad9b;
      }

      .cls-20 {
        fill: #4a9061;
      }

      .cls-21 {
        fill: #99c96d;
      }

      .cls-22 {
        fill: #50a362;
      }

      .cls-23 {
        fill: #bfd470;
      }

      .cls-24 {
        fill: #1f8264;
      }

      .cls-25 {
        fill: #9bc8ac;
      }

      .cls-26 {
        fill: #336c42;
      }

      .cls-27 {
        fill: #80ba66;
      }

      .cls-28 {
        fill: #78bc79;
      }

      .cls-29 {
        fill: #f9fcfb;
      }

      .cls-30 {
        fill: #bdd676;
      }

      .cls-31 {
        fill: #a6c96a;
      }

      .cls-32 {
        fill: #52695a;
      }

      .cls-33 {
        fill: #309c8c;
      }

      .cls-34 {
        fill: #b6d170;
      }

      .cls-35 {
        fill: #9dc6ac;
      }

      .cls-36 {
        fill: #e5f6e9;
      }

      .cls-37 {
        fill: #3bc1c6;
      }

      .cls-38 {
        fill: #489665;
      }

      .cls-39 {
        fill: #316941;
      }

      .cls-40 {
        fill: #486652;
      }

      .cls-41 {
        fill: #84c06d;
      }

      .cls-42 {
        fill: #4dc8c2;
      }

      .cls-43 {
        fill: #4da76d;
      }

      .cls-44 {
        fill: #80b662;
      }

      .cls-45 {
        fill: #48a971;
      }

      .cls-46 {
        fill: #5ba96f;
      }

      .cls-47 {
        fill: #87c271;
      }

      .cls-48 {
        fill: #32714e;
      }

      .cls-49 {
        fill: #2e956d;
      }

      .cls-50 {
        fill: #429c67;
      }

      .cls-51 {
        fill: #678172;
      }

      .cls-52 {
        fill: #bbd476;
      }

      .cls-53 {
        fill: #3f9f87;
      }

      .cls-54 {
        fill: #38c1c4;
      }

      .cls-55 {
        fill: #e4f5ea;
      }

      .cls-56 {
        fill: #3fbdb5;
      }

      .cls-57 {
        fill: #39b6b6;
      }

      .cls-58 {
        fill: #4b995f;
      }

      .cls-59 {
        fill: #77b563;
      }

      .cls-60 {
        fill: #345542;
      }

      .cls-61 {
        fill: #9ac1a8;
      }

      .cls-62 {
        fill: #88c381;
      }

      .cls-63 {
        fill: #23765e;
      }

      .cls-64 {
        fill: #c8e6d0;
      }

      .cls-65 {
        fill: #81b863;
      }

      .cls-66 {
        fill: #a0cc76;
      }

      .cls-67 {
        fill: #357350;
      }

      .cls-68 {
        fill: #157467;
      }

      .cls-69 {
        fill: #71b364;
      }

      .cls-70 {
        fill: #5c9a76;
      }

      .cls-71 {
        fill: #43946e;
      }

      .cls-72 {
        fill: #37a27e;
      }

      .cls-73 {
        fill: #48a57a;
      }

      .cls-74 {
        fill: #34ab9b;
      }

      .cls-75 {
        fill: #3ec6ca;
      }

      .cls-76 {
        fill: #3fbaba;
      }

      .cls-77 {
        fill: #33988b;
      }

      .cls-78 {
        fill: #2ea59d;
      }

      .cls-79 {
        fill: #fafcfa;
      }

      .cls-80 {
        fill: #388467;
      }

      .cls-81 {
        fill: #bbdbca;
      }

      .cls-82 {
        fill: #67b275;
      }

      .cls-83 {
        fill: #c2d774;
      }

      .cls-84 {
        fill: #c1d776;
      }

      .cls-85 {
        fill: #9dc5b2;
      }

      .cls-86 {
        fill: #468f58;
      }

      .cls-87 {
        fill: #b2e0b2;
      }

      .cls-88 {
        fill: #bcd976;
      }

      .cls-89 {
        fill: #2a866d;
      }

      .cls-90 {
        fill: #58c9c9;
      }

      .cls-91 {
        fill: #b1cd70;
      }

      .cls-92 {
        fill: #93c99c;
      }

      .cls-93 {
        fill: #fdfdfd;
      }

      .cls-94 {
        fill: #67b574;
      }

      .cls-95 {
        fill: #64d2d8;
      }

      .cls-96 {
        fill: #56b066;
      }

      .cls-97 {
        fill: #329479;
      }

      .cls-98 {
        fill: #3fa17c;
      }

      .cls-99 {
        fill: #3dc7ca;
      }

      .cls-100 {
        fill: #7cbb6f;
      }

      .cls-101 {
        fill: #34764b;
      }

      .cls-102 {
        fill: #60af6f;
      }

      .cls-103 {
        fill: #50685a;
      }

      .cls-104 {
        fill: #8fbc64;
      }

      .cls-105 {
        fill: #e5f6eb;
      }

      .cls-106 {
        fill: #2e6d4f;
      }

      .cls-107 {
        fill: #539765;
      }

      .cls-108 {
        fill: #7ebb69;
      }

      .cls-109 {
        fill: #4ba875;
      }

      .cls-110 {
        fill: #d9f2e2;
      }

      .cls-111 {
        fill: #445d51;
      }

      .cls-112 {
        fill: #38ac83;
      }

      .cls-113 {
        fill: #31b8b9;
      }

      .cls-114 {
        fill: #2fb5b3;
      }

      .cls-115 {
        fill: #348257;
      }

      .cls-116 {
        fill: #456250;
      }

      .cls-117 {
        fill: #2f714f;
      }

      .cls-118 {
        fill: #c9e1cd;
      }

      .cls-119 {
        fill: #316b47;
      }

      .cls-120 {
        fill: #9bc56a;
      }

      .cls-121 {
        fill: #c3e3cd;
      }

      .cls-122 {
        fill: #2eaeab;
      }

      .cls-123 {
        fill: #44ad72;
      }

      .cls-124 {
        fill: #3cbcb2;
      }

      .cls-125 {
        fill: #a1c96d;
      }

      .cls-126 {
        fill: #3b7853;
      }

      .cls-127 {
        fill: #d1efde;
      }

      .cls-128 {
        fill: #34c4bf;
      }

      .cls-129 {
        fill: #cee8d8;
      }

      .cls-130 {
        fill: #698831;
      }

      .cls-131 {
        fill: #2e5e25;
      }

      .cls-132 {
        fill: #21755f;
      }

      .cls-133 {
        fill: #9dcb72;
      }

      .cls-134 {
        fill: #519e61;
      }

      .cls-135 {
        fill: #4fae81;
      }

      .cls-136 {
        fill: #309567;
      }

      .cls-137 {
        fill: #b4d06e;
      }

      .cls-138 {
        fill: #3e5b4a;
      }

      .cls-139 {
        fill: #88bd68;
      }

      .cls-140 {
        fill: #acce6f;
      }

      .cls-141 {
        fill: #39bfbf;
      }

      .cls-142 {
        fill: #73b578;
      }

      .cls-143 {
        fill: #a8cd69;
      }

      .cls-144 {
        fill: #49cdd2;
      }

      .cls-145 {
        fill: #d4e8d6;
      }

      .cls-146 {
        fill: #5cab6a;
      }

      .cls-147 {
        fill: #2da59b;
      }

      .cls-148 {
        fill: #fcfdfb;
      }

      .cls-149 {
        fill: #6fae62;
      }

      .cls-150 {
        fill: #a1c568;
      }

      .cls-151 {
        fill: #30b1b0;
      }

      .cls-152 {
        fill: #3a8664;
      }

      .cls-153 {
        fill: #b8d273;
      }

      .cls-154 {
        fill: #79b691;
      }

      .cls-155 {
        fill: #63ad64;
      }

      .cls-156 {
        fill: #42845a;
      }

      .cls-157 {
        fill: #c0d370;
      }

      .cls-158 {
        fill: #3f7133;
      }

      .cls-159 {
        fill: #29a18a;
      }

      .cls-160 {
        fill: #70b161;
      }

      .cls-161 {
        fill: #4fb075;
      }

      .cls-162 {
        fill: #57a46c;
      }

      .cls-163 {
        fill: #b1cf71;
      }

      .cls-164 {
        fill: #43bcb8;
      }

      .cls-165 {
        fill: #306e4b;
      }

      .cls-166 {
        fill: #aacd6c;
      }

      .cls-167 {
        fill: #82ba64;
      }

      .cls-168 {
        fill: #455d4f;
      }

      .cls-169 {
        fill: #5fb295;
      }

      .cls-170 {
        fill: #2e8d7b;
      }

      .cls-171 {
        fill: #42c1c7;
      }

      .cls-172 {
        fill: #d9f3ce;
      }

      .cls-173 {
        fill: #4b9660;
      }

      .cls-174 {
        fill: #466753;
      }

      .cls-175 {
        fill: #3d5a49;
      }

      .cls-176 {
        fill: #387350;
      }

      .cls-177 {
        fill: #afcb6c;
      }

      .cls-178 {
        fill: #46af75;
      }

      .cls-179 {
        fill: #8abe68;
      }

      .cls-180 {
        fill: #34907a;
      }

      .cls-181 {
        fill: #6cb66e;
      }

      .cls-182 {
        fill: #449771;
      }

      .cls-183 {
        fill: #c1e1cc;
      }

      .cls-184 {
        fill: #75b56a;
      }

      .cls-185 {
        fill: #63af66;
      }

      .cls-186 {
        fill: #92be64;
      }

      .cls-187 {
        fill: #dff4e3;
      }

      .cls-188 {
        fill: #44cbce;
      }
    </style>
  </defs>
  <path class="cls-93" d="M57.84,339.12c.28-58.59,18.83-117.03,57.78-168.54,18.17-24.03,40.54-43.82,65.36-60.85,38.24-26.25,80.3-42.67,126.29-48.72,58.64-7.72,114.86.58,168.25,26.41,38.72,18.73,72,44.58,99.18,77.94,21.49,26.37,37.22,55.99,48.08,88.27,12.04,35.78,16.27,72.58,13.88,110.04-2.14,33.55-9.8,65.95-23.93,96.67-22.64,49.24-56.89,88.7-101.16,119.48-33.49,23.28-70.8,37.81-110.95,44.51-54.8,9.14-108.59,5.19-160.7-14.96-44.95-17.39-83.19-44.45-114.78-80.89-23.82-27.48-41.41-58.5-53.01-92.95-9.89-29.39-14.26-59.63-14.3-96.4Z"/>
  <path class="cls-80" d="M380.14,685.3c-4.71,1.43-9.61,1.67-14.44,1.81-24.36.71-48.53-1.21-72.74-4.24-14.86-1.86-28.46-6.9-42.34-11.58-3.79-1.28-7.98-1.48-11.13-4.69-1.39-1.41-1.74-2.25-1.08-3.96,1.72-4.4,4.38-9-2.2-11.96-1.07-.48-.85-1.69.18-2.25,2.61-1.4,2.85-3.82,3.3-6.39.67-3.85,3.84-5.1,8.66-3.64,4.96,1.5,9.62,3.65,14.88,4.56,9.49,1.63,19.03,2.87,28.55,4.16,12.65,1.71,25.25,3.98,38.07,4.04,11.37.05,22.75-.04,34.13-.06.23,4.06-2.89,4.55-5.62,4.71-4.1.24-8.14.93-12.23,1.19-2.51.16-3.6.89-1.92,3.48,1.54,2.36,1.43,4.82-.57,6.96-2.91,3.12-1.48,6.91-1.52,10.4-.02,1.75,2.11,2.15,3.59,2.61,5.76,1.78,11.67,2.62,17.69,2.72,3.94.07,7.89-.07,11.84.08,1.86.07,3.89-.09,4.9,2.07Z"/>
  <path class="cls-150" d="M26.41,208.91c3.26-9.94,8.19-19.12,13.13-28.27,16.79-31.13,37.62-59.21,63.29-83.62.45-.43.99-.78,1.48-1.17,2.39,1.83,2.65,2.1.53,4.86-1.78,2.31-1.09,3.27.88,4.85,3.12,2.49,7.29,4,8.56,8.43.24.82,1.19.95,1.99,1.01,2.97.2,5.15.92,4.95,4.74-.11,2.08,1.57,1.36,2.64.66,2-1.32,2.83-3.86,4.93-5.02,2.09-1.16,4.54-3.46,6.15.67-17.04,16.01-32.31,33.56-45.96,52.56-6.91,9.63-12.5,20.03-18.63,30.12-1.7,1.27-3.01.29-4.13-.86-1.03-1.06-2.57-1.34-3.53-2.16-6.89-5.88-14.51-2.76-21.9-2.02-2.99.3-4.34,2.94-5.67,5.24-1.98,3.41-3.45,7.09-5.39,10.52-.59,1.05-1.57,2.19-3.05,1.55-.9-.39-.58-1.31-.27-2.06Z"/>
  <path class="cls-9" d="M397.21,3.83c18.53,2.32,36.68,6.09,54.08,13.14,3.93,1.59,8.14,2.49,12.18,3.83,2.6.87,4.15,2.49,4.2,5.57.04,2.49.45,5.11,1.36,7.42,1.56,3.95,2.26,7.43-1.24,10.83-1.37,1.32-1.4,3.27.84,4.23,2.02.86,3.38.32,3.67-2.06.15-1.22.13-2.93,1.95-2.57,2.01.4,1.29,2.13,1.11,3.51-.41,3.08.35,5.96,1.74,8.68.6,1.18,2.3,2.2.71,3.64-1.4,1.27-3.12.74-4.39-.21-2.78-2.09-5.61-4.01-8.87-5.33-1.95-.79-3.85-1.4-5.95-1.28-2.4.13-4.74-.21-7.02-.92-20.67-6.43-41.7-11.13-63.21-13.72-1.81-.22-3.83-.24-5.41-1.51-.98-1.87-1.13-3.89-1.19-5.96-.16-5.98.58-11.93.2-17.94-.3-4.92,1.45-6.31,6.27-7.02,3.04-.45,6.35-.12,8.96-2.32Z"/>
  <path class="cls-15" d="M656.64,502.56c-8.83,16.53-18.67,32.44-29.91,47.44-12.42,16.57-26.31,31.82-42.01,45.37-2.02,1.74-4,3.53-6,5.3-2.74-.51-3.19-1.38-1.47-3.53,2.35-2.92,5.26-5.33,8.41-8.53-4.87-.71-6.08-3.28-6.92-7.52-.78-3.89-4.07-7.25-4.07-11.78,0-1.85-1.71-1.56-2.84-.77-2.09,1.47-4.44,2.41-6.77,3.3-1.75.67-4.15,1.74-4.5-1.75,6.69-6.88,13.64-13.53,20-20.69,12.96-14.6,24.88-30.01,35.2-46.63,3.1-2.75,3.49.15,4.31,2.09.74,1.75-1.51,4.25,1.26,5.47,3.44,1.51,6.92,3.3,10.77,3,2.39-.19,4.57.08,6.92.43,4.16.62,6.88-2.4,9.02-5.49,1.61-2.33,3.24-4.67,5.12-6.75,1.79-1.98,2.91-1.52,3.49,1.04Z"/>
  <path class="cls-180" d="M380.14,685.3c-10.69-.22-21.46.84-31.99-1.87-2.13-.55-4.26-1.21-6.25-2.11-2.4-1.08-5.47-2.09-2.15-5.58.79-.84.18-2.13-.12-3.19-.36-1.27-.54-2.79.35-3.63,4.2-3.94,3.75-7.04-.47-10.97-2.08-1.93,1.39-2.59,2.7-2.77,4.51-.62,9.07-.92,13.62-1.24,3-.21,6.04-.16,8.15-2.85,10.45.18,20.65-1.97,30.96-3.22,9.99-1.21,19.9-2.67,29.45-6.05,1.56-.55,3.44-.21,5.17-.28-2.26,5.76-7.51,6.89-12.65,7.63-3.12.45-5.31,1.32-6.7,4.28-.81,1.73-.92,2.9.74,4.03,2.88,1.96,3.68,4.74,3.83,8.17.28,6.56,6.22,10.13,12.09,7.51,3.13-1.4,6.46-1.44,9.75-1.69,1.61-.12,3.15.5,3.49,2.49-1.49,2.41-4.24,2.02-6.4,2.56-11.3,2.78-22.68,5.3-34.23,6.83-6.41.85-12.87,1.31-19.31,1.95Z"/>
  <path class="cls-149" d="M38.75,292.64c-1,10.22-1.81,20.45-3.06,30.64-.8,6.48-.62,12.95-.59,19.43.01,3.28-1.19,4.48-4.47,4.41-8.7-.18-17.41-.26-26.11-.1-3.66.07-4.69-1.43-4.49-4.81,1.29-21.43,1.42-42.97,6.14-64.06.48-2.14-.12-4.49,1.31-6.43.42-.25.76-.59.87-1.06,1.67-7.39,3.82-7.99,9.64-3.44,4.08,3.2,8.44,5.86,10.39,11.09.66,1.76,2.82,2.44,4.51,3.27,3.48,1.72,6.3,3.77,5.13,8.37-.24.92.29,1.85.73,2.69Z"/>
  <path class="cls-6" d="M329.74,36.06c-16.36.66-32.47,3.3-48.54,6.25-1.23.23-2.49.3-3.73.45-8.19,1.38-14.12-3.23-20.38-7.35-5.16-3.39-8.85-12.42-6.75-18.2,1.18-3.25,3.44-4.82,6.99-3.92,1.05.26,2.31,1.12,3.1.14,2.43-3.04,6.36-3.08,9.34-4.95,10.14-3.11,20.66-4.12,31.09-5.57,4.2-.59,8.42-1.34,12.7-1.05,3.1-1.18,6.43.3,9.54-.83l10.45-.06c.55,2.88-1.53,3.48-3.55,3.84-3.96.71-6.3,2.63-5.98,6.96.05.62-.06,1.27-.29,1.86-2.72,6.99-.9,11.96,5.9,15.64,4.39,2.37,4.13,4.59.12,6.81Z"/>
  <path class="cls-58" d="M329.74,36.06c1.93-1.67,2.01-3.19-.35-4.54-.95-.54-1.86-1.16-2.82-1.68-4.81-2.56-7.03-6.72-6.19-12.01.51-3.19,1.46-6.19,1.39-9.62-.07-3.15,3.57-4.79,6.8-5.3,1.85-.29,3.83.01,4.98-1.96,13.89-2.36,27.73.38,41.59.54,7.37.08,14.72,1.52,22.09,2.34-1.17,4.37-5.36,4.63-8.26,4.41-5.95-.44-5.43,3.18-4.88,6.55,1.12,6.76-.83,13.42-.27,20.13.06.69-.54,1.43-.84,2.15-17.72-1.51-35.48-.81-53.23-1.01Z"/>
  <path class="cls-160" d="M269.76,8.48c1.93,1.17.65,1.85-.48,1.8-3.88-.17-5.67,2.21-6.95,5.28-1.1,2.65-2.39,2.19-4.29.71-3.41-2.65-5.88-1.63-6.06,2.77-.23,5.82,1.38,12.49,8,15.64,5.32,2.52,9.7,6.93,16.17,6.8.43,0,.87.84,1.3,1.28-13.79,3.24-27.23,7.63-40.64,12.16-6.84,2.32-13.15,6.01-20.22,7.73-5.43-.43-10.48-2.06-14.6-5.62-4.57-3.94-5.9-9.99-8.6-15.09-1.57-2.96,1.26-5.47,3.84-7.32,2.35-1.69,5.6-2.19,6.96-5.2,19.51-8.61,39.61-15.46,60.48-19.97,1.68-.36,3.38-.66,5.08-.98Z"/>
  <path class="cls-65" d="M204.2,29.42c.93.19,2.89-.04.92,1.61-2.65,2.22-5.57,4.12-8.18,6.38-1.95,1.68-3.89,3.56-.52,6.02,1.01.74,1.62,2.35,1.93,3.68,1.94,8.17,8.53,11.02,15.34,13.59,1.18.45,2.51.44,2.91,1.95-13.08,6.61-26.05,13.43-38.35,21.45-1.03.67-2.3.95-3.46,1.42-3.1.3-5.38,2.35-7.93,3.8-.96.54-1.75,1.29-2.93,1.38-4.54.34-14.87-5.99-16.65-10.25-.37-.88-.75-1.8-.69-2.74.24-4.14,1.82-8.23-.43-12.39-.93-1.72,2-2.71,1.83-4.59,17.56-12.55,36.59-22.45,56.21-31.29Z"/>
  <path class="cls-186" d="M147.99,60.72c1.26.31,1.55,1.03.68,1.99-1.47,1.61-1.25,2.89.25,4.45,1.9,1.98,1.2,4.35.39,6.65-1.53,4.37.32,9.03,4.38,11.08,2.95,1.49,6.61,1.11,9.16,3.9,1.03,1.12,2.53-.53,3.84-.92,2.7-.8,4.73-3.95,8.11-2.35-13.16,8.83-25.71,18.44-37.44,29.1-.67.61-1.6.93-2.4,1.39-2.77-1.84-4.4.23-6.04,1.88-1.33,1.34-2.29,3.07-3.71,4.27-1.82,1.54-4.1,2.99-6.38,1.08-2.28-1.91.22-3.65.82-5.58-.37-.23-.77-.7-1.08-.64-3.71.62-6.55,1.39-7.44-4.4-.4-2.61-5.41-4.84-8.69-6.59-3.08-1.64-3.13-2.71-.75-5.02,1.33-1.3,4.33-2.18,2.62-5.18,13.45-13.09,28.08-24.71,43.68-35.12Z"/>
  <path class="cls-16" d="M545.49,626.36c-7.7,5.89-15.79,11.16-24.6,15.27-8.42,3.99-12.35,2.19-14.79-6.67-.71-2.58-1.71-5.05-4.03-6.74-1.86-1.35-2.74-3.33-3.39-5.5-1.66-5.5-1.37-6.28,3.61-8.96,4.28-2.3,8.23-5.08,11.85-8.34,7.28-5.06,14.57-10.12,21.85-15.18,2.95.93,4.65-.67,6.32-2.83,2.1-2.7,4.32-2.58,5.83.4,2.04,4.01,4.85,7.28,8.28,10.1,3.58,2.94,2.6,7.58,4.01,11.35,1.85,4.96-2.91,6.7-5.82,9.45-2.91,2.74-7.65,3.28-9.12,7.65Z"/>
  <path class="cls-147" d="M514.13,605.41c-1.96,4.73-6.41,6.76-10.33,9.23-4.46,2.81-5.15,8.61-.6,11.68,2.81,1.89,3.96,4.42,4.81,7.2,2.55,8.32,4.34,9.53,12.87,8.1-5.81,4.42-12.61,7.06-19.1,10.12-8.36,3.95-16.54,8.48-25.62,10.77-5.74.65-10.95,3.86-16.95,3.44-1.96-.14-3.87-.04-5.03-1.87-1.29-2.03-.55-3.99.79-5.67,3.56-4.48.31-8.89-.47-13.09-1.44-7.77-1.43-8.01,5.13-11.89,4.62-2.73,9.81-3.94,14.44-6.51,1.37-.76,2.89-1.23,3.92-2.51,12.49-5.48,24.1-12.63,36.12-19.01Z"/>
  <path class="cls-33" d="M478.01,624.42c-2.52,4.84-7.67,5.66-12.01,7.39-3.59,1.43-6.26,4.1-9.63,5.75-1.35.66-1.51,2.6-.82,3.86,1.43,2.59,1.31,5.51,2.22,8.17,1.38,4.05,2.38,7.89-1.85,10.99-.71.52-1.2,1.58-.74,2.57.62,1.32,1.87.62,2.88.8,6.19,1.14,12-2.1,18.12-1.45-11.83,4.43-23.35,9.87-36.08,11.44-4.94-1.06-9.76-.68-13.91,2.29-2.21,1.58-3.97,1.62-6.01.2-4.36-3.05-8.65-6.13-7.5-12.52.49-2.72-1.37-4.01-3.49-4.99-2.98-1.38-3.82-2.53-1.59-6.01,2.61-4.08,5.27-5.76,10.13-5.92,4.35-.14,7.97-3.43,11.84-5.47,16.46-4.83,32.4-11.14,48.46-17.12Z"/>
  <path class="cls-78" d="M645.37,439.12c2.48-8.57,4.96-17.14,7.43-25.7,2.25-7.14,3.34-14.6,6.55-21.49,1.43-3.06,3.18-4.39,6.39-5.36,6.98-2.12,13.17.35,19.5,2.27,3.03.92,4.94,3.47,4.31,6.54-1.48,7.26-.75,14.72-2.37,21.94-1.95,9.9-3.54,19.9-7.79,29.19-1.38.04-2.72-.36-3.05-1.75-.96-4.13-3.64-3.22-6.14-2.09-3.23,1.47-6.36,1.32-9.71.6-2.72-.59-4.7-1.64-5.54-4.45-.88-2.95-2.31-2.47-3.98-.56-1.59,1.81-3.35,3.05-5.6.86Z"/>
  <path class="cls-44" d="M38.75,292.64c-1.4-5.97-5.69-9.19-10.92-11.57-.54-.24-1.18-.82-1.29-1.35-1.3-6.49-7.54-8.31-11.52-12.24-2.66-2.63-4.69-1.86-5.53,1.82q-.57,2.51-2.02,2.4c.77-7.02,2.63-13.83,4.41-20.62,1.7-6.51,3.98-12.88,6.01-19.31,1.52-.79,1.17-2.46,1.68-3.71,1.91-4.63,6.4-6.54,10.72-4.13,2.51,1.4,5.05,2.54,7.85,3.09,2.16.43,3.73,1.56,4.81,3.44.47.82.79,1.82,1.54,2.35,5.39,3.82,6.37,8.89,4.37,14.87-.15.44.04.92.32,1.33-3.43,12.14-7.69,24.07-9.23,36.7-.28,2.32-.8,4.61-1.21,6.92Z"/>
  <path class="cls-57" d="M656.64,502.56c-.91-2.03-1.63-.76-2.23.18-3.07,4.86-6.14,9.64-11.17,12.9-1.94,1.25-3.28,2.42-5.21.34-.75-.81-1.75-1.79-2.86-1.23-6.05,3.07-10.8-1.75-16.2-2.58-2.93-.46-1.97-2.58-1.33-4.42.74-2.14,2.45-4.73-1.89-4.96,5.41-9.82,10.83-19.64,16.24-29.46,1.77-2.6,2.24-5.79,3.86-8.45l.07-.07c1.31-2.43,2.9-1.31,4.21-.16,1.53,1.34,2.8,2.98,4.32,4.34,1.9,1.7,3.69,2.78,6.7,1.94,4.87-1.36,12.36,3.27,13.55,8.05.35,1.41,3.11,1.79,1.52,3.83-2.52,6.91-5.57,13.56-9.59,19.75Z"/>
  <path class="cls-77" d="M687.18,417.32c.79-7.15-1.88-14.3.42-21.52,1.07-3.34-1.47-5.43-5.09-5.05-.77.08-2.01.44-2.23.12-4.31-6.15-10.07-1.45-15.08-2.04-1.87-.22-2.95.78-3.68,2.82-2.6,7.23-5.54,14.33-8.37,21.47-.05.13-.23.21-.35.31,1.7-11.37,3.58-22.72,5.06-34.12,1.13-8.75,1.89-17.55,2.54-26.34.22-3.05,1.35-4.35,4.34-4.07,8.81.83,17.65.95,26.49.84,3.58-.04,3.51,2.37,3.47,4.85-.22,13.9-1.64,27.7-3.26,41.48-.84,7.19-1.77,14.38-4.26,21.25Z"/>
  <path class="cls-104" d="M49.19,249.03c-1.79.43-1.19-.67-1.07-1.59.71-5.05.27-9.67-4.83-12.49-1.2-.66-1.64-1.88-2-3.08-.58-1.9-1.77-2.75-3.78-2.88-2.53-.17-4.91-1.04-7.06-2.43-4.92-3.16-9.21-1.35-10.1,4.41-.36,2.32-1.27,1.65-2.46.82,1.94-7.97,5-15.51,8.52-22.89,1.47,2.12,1.55-.02,1.83-.69,2.01-4.79,4.03-9.56,7.16-13.76.64-.86,1.43-2.28,2.18-2.3,6.88-.14,13.8-5.05,20.32-1.62,4.26,2.24,9.54,3.61,12.46,8.14-5.6,12.47-12.01,24.59-16.54,37.55-1.5,4.28-3.09,8.53-4.64,12.8Z"/>
  <path class="cls-122" d="M666.23,482.82c-.05-.15-.06-.34-.16-.44-1.97-1.84-2.34,3.76-4.19,1.01-1.05-1.56.82-3.22,1.08-4.89.37-2.29-.67-3.78-3.06-3.68-1.45.06-2.82.23-4.11-.57-1.81-1.13-3.56-3.97-5.29.34-.47,1.17-2.21,0-3.26-.75-3.09-2.22-6.04-4.6-8.29-7.7-.8-1.09-1.47-2.12-3.02-1.34,2.24-6.12,4.16-12.39,6.86-18.3,1.11-2.44,1.02-5.19,2.58-7.39,1.89.09,3.36-.38,4.11-2.41.75-2.07,1.94-3.83,4.59-2.64,1.83.82,4.54.94,2.98,4.41-.75,1.68,1.05,2.08,2.51,2.58,4.72,1.62,9.02.28,13.26-1.54,3.44-1.47,6.1-2.13,4.92,3.27-.35,1.58.56,2.72,1.65,3.72-2.98,7.51-3.52,15.81-7.43,23.03-2.45,1.55-2.92,3.98-2.96,6.61-.43,2.43-1.33,4.66-2.77,6.68Z"/>
  <path class="cls-76" d="M545.49,626.36c-3.41-.53-1.66-1.69-.28-2.64,3.34-2.31,6.66-4.67,10.13-6.78,3.48-2.12,5.1-4.6,2.63-8.47-.17-.26-.4-.59-.37-.86.71-6.79-5.25-9.61-8.37-14.11-.44-.64-1.04-1.19-1.61-1.73-1.41-1.34-1.64-10.26-4.94-.64-.63,1.84-4.75,2.03-6.7-.9,8.19-6.71,16.38-13.42,24.57-20.14,3.63,2.16,5.93-1.28,8.4-2.52,2.72-1.37,5.41-2.14,8.68-3-1.33,5.58-1.21,10.6,3.3,14.55.48.42.72,1.53.56,2.21-.89,3.88-.59,6.17,4.15,3.69.92-.48,1.99-.33,2.16.95.24,1.85.87,4.01-1.16,5.2-3.22,1.88-5.09,5.17-8.07,7.26-1.13.8-1.72,1.59.13,2.23-9.93,10.05-21.95,17.38-33.23,25.68Z"/>
  <path class="cls-57" d="M669,476.14c-2.07-3.33.98-5.5,2.09-7.97.36-.8.57.85.87,1.36-.99,2.2-1.97,4.41-2.96,6.61Z"/>
  <path class="cls-122" d="M635.86,464.88c-.63,3.12-1.37,6.18-3.86,8.45.85-3.02,1.49-6.13,3.86-8.45Z"/>
  <path class="cls-58" d="M323.09,1.02c-3.06,1.65-6.35.62-9.54.83,3.06-1.62,6.35-.64,9.54-.83Z"/>
  <path class="cls-7" d="M344.55,591.69c-37.45.29-73.26-7.21-107.06-23.47-43.2-20.79-77.89-51.3-103.44-91.94-12.94-20.58-23.43-42.38-29.54-66.02-12.55-48.57-11.55-96.89,3.88-144.66,15.96-49.39,45.23-89.38,86.74-120.47,52.06-38.99,110.83-55.18,175.3-49.93,48.89,3.98,92.54,22.06,131.35,52.16,30.65,23.77,54.87,52.65,71.95,87.49,14.82,30.24,23.23,62.18,25.16,95.78,2.14,37.25-3.73,73.24-18.07,107.69-14.01,33.64-34.78,62.72-61.41,87.5-40.65,37.83-88.69,59.44-144.05,64.6-5.36.5-10.72,1.01-16.09,1.24-4.9.21-9.81.04-14.72.04Z"/>
  <path class="cls-104" d="M42.15,186.56c-.13.86-.61,1.47-1.42,1.71-.73.21-1.27-.18-1.32-.92-.06-.91.53-1.46,1.37-1.65.68-.15,1.25.05,1.37.87Z"/>
  <path class="cls-65" d="M135.89,71.38c.72-.31,1.5-.52,2.13-.96,1.36-.95,2.41-2.48,4.34-2.29.21.02.57.76.49,1.08-.55,2.2-2.19,3.27-4.27,3.73-.55.12-1.16-.07-1.74-.11-.31-.48-.63-.96-.94-1.44Z"/>
  <path class="cls-79" d="M336.57,562.86c1.65-2.31.42-4.86,1-8.78-13.28,12.92-28.47,17.7-45.55,16.99,9.1-2.48,18.29-4.83,26.36-9.88,8.12-5.07,15.23-11.13,16.08-22.53-24.72,24.58-53.71,27.35-85,19.8,15.99.68,31.96.64,47.24-5.23,15.45-5.93,28.65-14.45,34.73-31-1.83-1-2.33.48-2.84,1.19-13.14,18.09-32.06,24.46-53.19,25.72-17.69,1.05-35.03-1.29-51.79-7.4-5.21-1.9-9.65-5.21-14.64-7.5-.22-1.52.85-1.97,1.96-2.38,7.04-.05,13.56,2.75,20.42,3.73,13.41,1.92,26.81,4.19,40.36,1.22,23.82-3.38,43.98-13.27,58.63-32.97,3.87-6.48,6.68-13.41,9.23-20.49.72-2,.98-5.38,4.81-3.98,1.04,2.28.68,4.71.54,7.03-.87,13.76-.2,27.53-.43,41.29-.1,5.7-.07,11.39,1.15,16.99-.42,4.07-.67,8.14-.12,12.43,1.75-2.96,1.78-42.42.16-63.62-.33-6.54-.03-13.19-3.42-19.18-.62-6.03.29-12.04.91-17.95.99-9.4-.42-18.63-.77-27.91-.54-14.29-4.77-27.95-7.83-41.85-2.09-9.47-5.63-18.28-8.36-27.43-14.99-43.48-44.34-71.05-89.77-80.44-21.71-4.49-43.05-10.31-64.26-16.69-1.23-.37-2.93-.24-3.51-2.46,4.13-.52,8.09.22,12.29.45-6.56-6-11.54-12.97-15.56-20.65-.44-.85-1.73-1.84-.53-2.86.37-.32,1.47.23,2.24.38,3.87-.87,5.64,1.95,7.64,4.36.98,1.16,2.08,2.21,3.26,3.17,5.14,4.51,10,9.46,17.03,11.07,7.83,2.36,15.83,4.02,23.81,5.75,2.68.58,3.45-.54,2.77-3.11-2.26-8.61-.92-17.51-1.93-26.23-.28-2.45.93-4.91,1.66-7.23.97-3.1,3.16-1.34,4.9-.26,2.94,4.12,3.69,8.99,4.8,13.75-1,12.98,6.43,24.24,18.67,28.27,3.42,1.12,6.85,2.22,10.92,2.89-1.48-5.73-3.15-10.94-4.25-16.3-2.06-10.04-.15-19.78,1.51-29.58.06-.45.15-.91.23-1.36.53-1.52.81-3.09.73-4.71-1.08-4.76.18-9.83-1.82-14.46-3.53-8.16-8.79-14.86-16.6-19.37-1.36-.79-2.85-1.37-4.01-2.49q-2.58-3.52-.92-5.1c14.08,3.32,24.02,11.62,30.82,24.4,2.92,5.49,3.17-1.58,5.03-1.82,1.62-1.46,3.64-2.35,5.3-3.77,1.18-1,2.65-1.08,3.82.08,1.05,1.04.66,2.31.15,3.5-.37.88-.87,1.74-1.63,2.26-3.1,2.16-3.1,5.14-2.36,8.35-.35,3.48-1.75,6.7-2.53,10.09-2.67,11.55-3.27,23.13-.52,34.74,2.53,10.67,8.46,19.18,16.51,26.47,10.28,9.32,22.01,17.02,31.29,29.02-1.78-12.92-4.86-24.34-7.8-35.81-3.41-13.27-9.71-25.35-15.07-37.83-1.07-2.49-2.05-4.95-1.85-7.73.42-1.16.61-2.48,2-2.99,4.72.93,6.6,5.31,9.75,8.14,1.1.98,2.07,2.31,2.79,3.7,11.44,13.9,18.36,30.22,23.68,47.07,3.4,10.75,5.32,22,6.94,33.27.89,6.21,1,12.55,2.61,18.66.53,2,.71,4.03.75,6.11.23,11.7-.66,23.41.44,32.18.07-26.67,5.41-55.43,13.07-83.84,5.73-22.64,15.58-43.16,31.6-60.37,2.31-2.48,3.18-6.33,6.91-7.47.76-.08,1.47.09,2.11.5,2.5,3.15,1.27,6.47-.14,9.36-11.87,24.23-21.6,49.15-25.18,76.65,6.63-9.13,15.44-15.53,23.54-22.65,6.33-5.55,12.31-11.29,17.32-18.09,5.66-7.68,8.04-16.44,8.67-25.68.9-13.34-1.81-26.1-7.4-38.24-.46-1.01-.92-2.02-1.06-3.14.02-2.3-.56-4.93,2.28-6.07,3.05-1.23,4.54,1.17,6.22,2.99.64.69,1.29,1.37,2.1,1.83.4.1.77.24,1.15.34,3.55-1.35,4.94-4.42,6.22-7.6.23-.45.54-.83.92-1.15.67-.67,1.37-1.32,2.13-1.87,3.43-2.49,4.81-1.95,6.18,2.37-1.02,4.47-4.2,7.96-5.15,12.62-1.68,8.22.26,16.04,1.28,23.99,1.69,13.19,1.43,26.17-3.92,38.64-.19.44-.26.91-.15,1.96,6.16-1.92,12.57-2.86,18.26-5.81,6.09-3.15,8.5-9.13,10.12-15.39,1.42-5.51,1.86-11.22,3.49-16.69.36-1.21.53-2.46,1.15-3.6,1-1.86,2.08-3.89,4.53-3.43,2.29.42,1.72,2.71,1.95,4.34,1.38,10.05,1.34,20.08-.94,30-.58,2.51.23,3.21,2.6,2.83,16.91-2.7,33.25-6.68,45.53-19.94.86-.93,1.77-1.81,2.71-2.66,1.83-1.66,3.92-3.3,6.3-1.6,2.69,1.92,1.45,4.59.24,6.83-1.88,3.47-3.98,6.83-6.82,9.64-1.09,1.08-2.3,2.06-3.17,3.37.32.21.44.34.57.37,2.36.41,5.91-.77,6.51,2.4.69,3.66-3.17,4.39-5.65,5.27-14.18,4.99-28.89,8.06-43.42,11.79-9.04,2.32-18.46,2.67-27.38,5.15-29.27,8.13-52.27,24.89-67.74,51.34-8.13,13.91-16.41,27.77-21.48,43.22-2.5,2.42-1.91,5.88-2.91,8.81-5.66,16.56-8.59,33.52-7.99,51.13.42,12.45.21,24.9,1.63,37.33,1.26,11.09,5.57,20.96,10.68,30.62,12.51,16.95,29.77,26.23,49.94,30.68,8.91,1.96,17.97,2.85,27.11,2.87,9.32.02,18.45-1.59,27.61-3,2.83.09,5.71.49,8.3-1.2.49-.12.98-.12,1.48-.03,1.63.54,3.85.83,1.4,3.17-14.47,8.49-30.49,11.19-46.87,12.4-14.5,1.07-28.59-1.25-42.42-5.48-4.53,2.26-7.61-1.14-10.54-3.27-5.17-3.77-10.32-7.75-13.2-12.2,4.23,5.48,10.1,11.06,16.96,15.58,1.73,1.14,3.46,2.24,3.76,4.55,9.09,5.65,19.35,7.54,29.65,9.32,3.05,1.49,6.43-.2,9.52,1h-.02c.85.92,1.98.41,2.97.55.7.09,1.67-.12,1.74.88.09,1.23-1.41.83-1.9,1.54-26.55,1.87-51.05-2.44-70-23.49-2.12,12.49,17.39,26.79,32.91,30.08.76.87,2.24.06,3,1.45-1.47,1.68-3.26.86-4.97.57h.03c-3.16-.9-6.51-.78-9.63-1.84-6.99-1.84-13.53-4.53-18.97-9.53-1.6-1.47-2.72-3.89-5.49-3.72-1.82,2.45,1.27,6.14-2.07,8.2-2.01,4.08-4.03,8.15-6.02,12.23-1.13,2.32-1.96,2.32-3.47.08-2.42-3.6-3.11-8.19-6.54-11.17-1.46-.05-1.85-.58-.81-1.77Z"/>
  <path class="cls-48" d="M360.04,375.03c2.39-9.64,7.53-18.05,12.12-26.68,7.72-14.53,15.98-28.6,28.01-40.29,16.72-16.26,36.6-25.43,59.27-29.67,22.07-4.13,43.96-9.12,65.15-16.73.71-.26,1.38-.64,2.69-1.25-4.81-2.48-8.87.64-13.74.45,4.04-5.23,9.32-8.43,12.25-13.64,1.24-2.2,2.48-4.39,3.68-6.62.43-.8,1.26-1.77.44-2.57-1.1-1.07-2.09.04-2.81.75-3.02,3.02-6.09,5.96-9.31,8.78-11.09,9.74-24.75,12.94-38.64,15.62-3.24.62-7.93,2.35-9.51.9-2.16-1.98,1.59-5.56,2.06-8.66,1.51-10.05,1.2-20.11.82-30.76-3.83,2.22-4.01,5.72-4.69,8.73-1.43,6.32-2.07,12.79-4.16,18.98-2.66,7.9-7.5,13.31-15.9,15.37-6.07,1.49-12.01,3.51-18.66,5.49,1.2-2.52,2.21-4.55,3.14-6.61,5.83-12.9,6.03-26.39,3.8-40.02-1.26-7.66-2.68-15.12-.75-23.01,1.09-4.45,3.43-7.91,5.65-11.6,2.52-8.1,9.24-11.89,16.06-15.52,1.53-.81,3.08-1.53,4.36-2.71,3.47-1.65,6.77.28,10.15.56.92.08,1.79.92,1.83,1.94.04,1.04-.87,1.59-1.72,2.07-.79.45-1.93.3-2.52,1.66,2.97,2.63,6.44,2.6,10.03,1.77,6.17-1.43,10.58-5.45,14.56-10.08,1.33-1.55,2.53-3.37,5.06-2.56,1.08-.2,1.93-.09,1.75,1.33-.2,1.56-.67,3.13-.61,4.68.09,2.31-3.58,5.11.6,6.91,4.4,1.89,8.91,3.13,13.19-.39,1.72-1.41,3.53-3.65,4.23.72.17,4-3.18,5.55-5.51,7.76-5.82,5.53-7.22,12.2-3.74,18.35,2.05,3.63,3.3,3.9,6.71,1.68,4.09-2.67,7.18-6.13,8.87-10.75,2.05-3.04.83-6.45,1.12-9.69.05-.2.1-.41.16-.61.27-.7.37-1.79.85-2.01,1.07-.48,1.63.55,2.06,1.38,1.38,2.65.66,5.54.91,8.32.12,1.28-.78,3.19,1.09,3.62,1.37.31,1.82-1.42,2.57-2.39,2.13-2.76,5.21-2.94,6.34-.39.36.81-.19,1.49-.73,2.08-2.22,4.49-6.78,6.45-10.31,9.53-4.94,4.29-8.88,9.05-7.34,16.32.48,2.25,1.8,4.06,2.84,5.96,1.38,2.5,3.8,1.81,5.84.79,8.53-4.24,11.87-11.51,10.33-21.22-.44-2.74-2.33-5.85.63-8.44,2.93-.98,3.59.98,3.83,3.14.21,1.85.08,3.75.14,5.62.13,4.17-.06,8.41,5.32,9.93,2.09.59,2.33,2.73,2.21,4.72.19,2.25-1.26,3.45-2.91,4.49-2.4,1.5-4.56,3.38-7.1,4.68-6.35,3.25-7.99,8.89-7.81,15.47.07,2.57.83,3.63,3.75,3.16,10.58-1.73,15.37-7.87,14.16-18.47-.36-3.13-.58-6.3.91-9.28,2.91-2.57,6.02-.75,8.28.56,2.25,1.3,1.25,4.39.23,6.53-1.79,3.77-2.81,7.13,2.29,9.08-.55,6.05,6.42,11.97-.42,18.02,6.74.79,10.27,4.57,10.44,11.11.15,5.8-.61,11.62.08,17.42.36,2.99-1.59,4.49-4.82,5.97,3.85,1.15,6.32.99,8.74-.48.85-.52,1.89-.7,2.55.22.62.86-.4,1.35-.79,1.97-1.26,3.87-4.54,2.77-7.29,2.98-4.7-.71-9.4-2.01-14.11-.07-5.5.72-10.02,3.05-12.92,7.96.56,2.11,2.36,2.59,4.1,3.15,10.24,4.55,18.94,2.19,25.39-6.79,1.41-1.96,2.29-4.72,5.55-4.42,1.58-.34,1.78-2.13,3.18-3.01,2.17,3.35.18,6.15-1.31,8.7-1.55,2.65-2.92,5.15-2.69,8.35.12,1.62-.72,3.06-1.7,4.34-1.19,1.56-3.08,3.15.97,3.38,2.01.12,1.87,1.92,1.35,3.31-.44,1.16-1.26,2.18-1.92,3.26-3.79,6.18-3.74,6.57,1.84,11.33,1.03.88,2.76,1.43,1.28,3.27-.48.29-1,.37-1.55.23-6.07-2.7-12.4-1.9-18.68-1.32-5.9.54-18.29-4.22-20.99-8.25.39-2.68,2.4-3.26,4.61-3.58,1.47-.35,2.78.21,4.08.8,8.44,3.78,14.91,2.5,21.92-4.55-5.97-1.04-11.72-2.29-17.56-2.83-2.9-.27-6.08-.26-7.77,3.04-1.26,1.9-2.09,4.67-5.27,3.32-2.33-.99-3.02-4.55-.87-7.47,2.04-2.77.76-3.78-1.13-5.69-2.26-2.28-3.64-1.92-5.91-.16-4,3.1-6.12,2.53-7.09-1.39,2.12-3.81,6.18-5.57,9.01-8.63,2.55-1.94,4.63-4.26,6.07-7.14.37-.55.95-.89,1.38-1.39,2.28-2.87,2.46-7.29,6.49-8.88,1.37-.21,2.44.38,3.33,1.34,1.48,1.61,2.75.88,4-.31,6.03-2.56,11.04-6.12,12.83-12.91.44-1.69,1.2-3.52-.2-4.93-1.34-1.35-2.97-.27-4.45.16-4.13,1.2-7.85,3.21-11.35,5.67-2.69,1.79-3.56,4.75-4.77,7.49-1.27,4.84-4.8,8.17-7.87,11.81-8.05,9.18-18.38,14.99-29.71,18.76-23.55,7.82-47.46,14.51-71.02,22.31-18.94,6.27-36.14,15.84-51.4,28.79-1.45,1.23-3.07,2.23-4.66,3.26-5.8,1.63-10.25,5.15-13.96,9.78-1.81,2.26-3.94,4.57-7.13,2.94-3.18-1.63-2.46-4.68-1.8-7.49Z"/>
  <path class="cls-148" d="M382.06,367.83c7.92-6.24,15.93-12.32,24.59-17.59,15.84-9.66,33.23-15.26,50.76-20.66,17.82-5.49,35.68-10.86,53.39-16.69,10.62-3.49,19.68-9.83,27.83-17.45,2.47-.52,4.82-.88,4.02,2.99-.29.33-.59.66-.88.98-1.72,2.81-5.01,4.32-6.21,7.55-2.38,3.35-6.37,4.84-9.08,7.8-2.6,1.92-2.62,3.68.33,5.25.83.44,1.68.85,2.38,1.49,1.2,1.1,2.27,2.34,1.56,4.07-.69,1.68-2.2,1.43-3.63,1.17-2.99-.54-5.92-.18-8.81.67-2.91.46-5.67,1.58-8.59,1.98-3.4-.21-6.56.87-9.71,1.91-25.53,8.48-50.81,17.62-75.39,28.93,9.25-.93,18.14.14,26.87,3.15,15.09,5.2,30.05,10.99,46.01,13.08,12.15,1.59,24.27,1.05,36.28-1.53,1.61-.35,2.75-1.54,4.19-2.18,1.47-.47,2.87-1.22,4.46-1.25,5.72.81,5.99,1.3,3.94,7.05-6.03,6.52-14.12,8.47-22.35,10.32-16.25,3.66-32.32,1.67-48.4-1.1-1.32-.23-2.92-1.3-3.98.1-1.02,1.36.48,2.62.85,3.92.87,3.03,3.45,5.92.8,9.26.1,8.22.06,16.42-3.89,24.69-2.36-3.9-1.12-8.08-2.68-11.55-1.59-.6-1.73-1.97-2.03-3.43-3.7-18.17-18.35-31.7-38.65-32.65-21.06-.99-43.58,17.19-49.26,36.13-1.16,3.87-2.63,7.67-4.34,11.35-4.53,23.29-3.94,45.85,11.61,65.36,8.22,10.32,20.19,15.04,32.86,17.44,21.27,4.04,42.49,2.34,63.68-1.16,12.96-2.14,25.46-5.95,38.08-9.39.57-.2,1.09-.52,1.64-.76,1.09-.47,2.49-1.23,3.2.11.76,1.43-.91,1.94-1.77,2.67-.34.32-.68.64-1.02.97-1.12,3.21-4.22,4.17-6.77,5.4-17.67,8.55-36.38,13.26-55.91,15.1-11.7,1.1-23.32,1.4-34.96-.46-1.57-.25-3.07-.66-4.61-.97,11.96,2.66,24.04,2.73,36.2,1.81,17.3-1.3,33.96-5.3,50.21-11.25,2.85-1.04,5.4-2.63,8.18-3.75,1.55-.63,3.16-1.79,4.8-.13,1.56,1.72-.37,1.98-1.15,2.65-7.64,6.49-16.52,10.95-25.41,15.36-2.1,3.49-5.92,4.59-9.28,5.74-17.28,5.94-34.92,8.73-53.38,6.9-13.5-1.34-26.37-4.06-38.43-10.3-7.62-3.94-14.55-8.81-20.17-15.35-2.32-2.69-6-4.32-6.68-8.33-6.52-10.18-9.88-21.34-11.11-33.35-1.29-12.63-.81-25.27-.84-37.9-.04-19.46,5.96-36.93,17.8-52.42,3.61-4.72,8.3-8.17,12.85-11.81Z"/>
  <path class="cls-148" d="M199.59,523.51c-6.06-3.72-12.11-7.44-18.17-11.16-2.14-1.64-3.36-3.18.41-4.26,8.03,2.28,15.73,5.57,23.8,7.81,11.91,3.31,23.98,5.05,36.28,6.01,10.66.83,21.07-.47,28.92-1.4-8.68,1.42-19.99,2.15-31.46,1.31-18.74-1.37-36.71-5.77-54.04-12.9-4.17-1.71-8.45-3.43-11.47-7.09-.68-.55-1.37-1.09-2.05-1.64-.44-3.73,1.74-2.78,3.77-2.11,31.29,9.75,63.13,15.58,95.96,11.12,22.48-3.05,39.79-13.98,47.27-36.66,6.46-19.55,6.24-39.31-.63-58.68-4.35-12.26-11.35-22.94-22.74-30.06-3.21-2-6.47-3.95-10.22-4.82-4.05-.24-8.13-.47-12.16-.81-22.28-1.92-38.02,9.61-42.97,29.27-.76,2.85-1.85,5.59-2.62,8.43-1.04,1.99-.72,4.29-1.49,6.34-1.05,2.78-2.54,3.93-5.05,1.39-.76-1.02-1.43-2.2-1.48-3.41-.38-10.57-1.95-21.27,2.88-31.36.18-3.35-2.12-2.61-3.81-2.06-18.1,5.92-36.27,5.45-54.37.3-4.15-1.18-8.42-2.71-11.57-6.1-.91-1.07-1.42-2.39-2.09-3.6-1.97-3.57-1.07-4.93,3.4-5.37,1.54.07,2.63,1.23,4.04,1.64,2.8.85,5.52,1.99,8.47,2.3,7.39,2.15,14.89,1.23,22.36.82,4.08.25,8.21.98,12.02-1.32,1.77-.15,3.47-.66,5.21-1.01,3.07.64,5.63-.88,8.3-1.96,6.16-1.33,11.89-4.82,18.54-3.63,3.98-.4,7.57-2.15,11.32-3.31,10.46-3.24,21.07-4.84,32.13-3.25-5.85-4.82-12.6-7.82-19.35-10.56-22.42-9.1-45.1-17.57-68.25-24.66-6.27-1.92-12.84-1.64-19.32-1.85-1.53-.05-3.07,0-5.68,0,3.88-3.51,7.76-4.6,12.52-6.13-14.12-9-26.39-18.65-30.97-34.89-.48-1.52-2.44-2.94-.81-4.62,1.26-1.3,2.56.11,3.8.62,1.55,1.38,2.34,2.92,1.07,4.92,6.98,13.08,18.38,20.96,31.65,26.39,15.38,6.3,31.51,10.38,47.33,15.35,21.89,6.87,43.67,13.8,63.45,25.78,2.89.59,5.07,2.43,7.38,4.09,14.11,10.15,25.97,22.37,34.13,37.83,6.16,11.67,8.64,24.42,8.96,37.43.32,12.92,1.13,25.91-.87,38.78-1.68,10.83-4.49,21.31-10.78,30.54-11.9,18.92-29.5,29.29-50.93,33.9-1.54.33-2.98,1.07-4.58,1.21-7.06.36-14.14.48-21.2.73-15.33.54-30.32-2.22-44.67-7.84-3.49-1.37-5.95-4.54-9.54-5.81Z"/>
  <path class="cls-165" d="M156.96,374.79c-1.27.11-2.31-.39-3.21-1.25-2-2.19-5.75-.67-7.1-3.18,2.6,2.43,3.46,6.87,7.2,8.99,9.39,7.17,20.57,8.39,31.75,9.26,13.07,1.02,25.79-1.75,38.5-4.34.75-.15,1.5-.3,2.6-.52.03,2.3-1.15,3.67-2.29,5.06-4.37,4.8-9.75,7.37-16.29,7.34-2.01.56-4.07.25-6.1.4-3.82.28-7.46,3.63-8.01,7.39-.36,2.44.7,3.81,3.13,3.38,3.22-.58,6.52-1.14,8.62-4.23.87-1.28,1.71-2.66,3.1-3.52,1.54-.89,3.22-1.94,4.66-.11,2.13,2.72-.24,5.04-.89,7.5-.12.03-.02-.14.23-.5,1.43-2.15.9-6.58,5.03-5.65,3.75.84,2,4.52,2.01,6.91.02,4.58.46,9.08.99,13.61.2,1.76,1.16,2.87,2.14,4.1.45.58.61,1.22.43,1.93.23,1.37.79,3.63-1.65,1.74-3.47-2.69-4.67-1.26-5.28,2.16-.52,2.85-2.87,2.98-4.98,3.53-5.34,1.38-10.59,3.42-16.23.87-1.89-.85-4-.55-5.67,1.17-1.51,1.56-3.61,1.92-5.15.57-3.5-3.05-8.85-4.61-8.92-10.63-.02-1.64-1.48-1.82-2.79-1.92-3.31-.26-6.29-2.07-9.7-2-2.63.05-2.7-2.65-4.34-4.15,5.57-1.44,11.05.85,16.1-1.46.27-1.41,1.34-2.17,2.49-2.66,5.79-2.47,7.69-7.62,9.07-13.08.95-3.77-.15-5.37-3.98-5.79-7.15-.79-11.89,3.25-16.05,8.28-1.4,1.68-2.36,3.84-5.04,3.74-2.09,2.11-4.18,4.21-6.26,6.32-.33.33-.63.92-1,.97-6.5.91-11.9,5.48-18.43,5.92-6.05.4-10.07-4.54-15.11-6.88.17-.26.34-.52.51-.78,3.43-1.9,7.13-1.01,10.64-.66,4.02.4,7.82-.23,11.65-1.07,5.73-1.25,8.94-5.62,12.03-10.04,1.4-2,.58-3.59-1.44-4.64-6.2-3.23-19.67-3.39-24.22,3.98-1.64,2.65-3.46,5.26-5.34,7.79-1.17,1.58-2.37,2.97-4.56,2.89-.97-.21-1.53-.79-.73-1.59,1.68-1.68,2.76-3.33,1.36-5.77-.77-1.34.17-2.23,1.24-3.11,4.12-3.37,4.79-6.61,2.45-11.39-.6-1.22-1.93-2.22-.8-3.78,2.65-1.09,4.93.55,7.25,1.22,4.32,1.26,8.39.82,12.44-.75,4.3-1.67,4.77-3.33,2.03-7.02-1.29-1.73-3.27-3.19-1.62-5.73-1.94-5.4-6.91-2.98-10.44-3.71-4.38-.9-7.76-2.97-10.82-5.9-.95-.91-1.77-2.03.22-2.81,3.2-1.33,6.09.65,9.09,1.04,3.21.42,6.15.42,9.08-.88,1.59-.28,2-1.19,1.58-2.7-1.08-3.86-1.73-7.94-5.41-10.45-.93-1.56-2.26-2.13-4.1-2.39-1.98-.28-4.36-.42-5.27-2.91-4.15-1.72-8.64-.1-13.18-1.1,2.02-2.88,4.71-3.3,7.56-3.59,1.88-.2,3.95-.74,4.26-3.03.28-2.07-1.7-2.42-3.09-2.99-3.84-1.59-4.77-5.65-7.24-8.4-.61-.67.34-1.34,1.15-1.59,3.18.29,5.4,2.39,7.63,4.28,2.8,2.37,5.88,4.08,9.34,5.17,2.8,1.05,5.59,1.34,8.36-.12,5.4-3.62,5.55-5.9.54-8.37-4.42-1.98-8.81-.37-13.21.12-3.63-.4-7.74,1.57-10.67-2.19.31-.75.78-1.29,1.59-1.59,1.4-.51,3.89.62,4.13-1.2.32-2.47-2.3-1.11-3.53-1.68-.66-.3-.97-1.08-.51-1.52,1.27-1.25,1.35-3.72,3.74-3.77.6-.01,1.22.28,1.82.43,1.21-.35,2.4-.54,3.65-.01,5.87,2.46,11.24.85,16.49-2.01,2.07-1.13,4.3-2.07,6.48-.07.32.03.64.03.94.1,1.3.27,3.4-.39,3.51,1.49.12,2.02-2.06,1.9-3.51,2.4-2.78.96-5.5,2.09-8.22,3.14.48,1.87,1.96,1.97,2.96,2.63,2.6,1.7,4.34,3.68,3.11,7.08-.48,1.35-.74,2.93.11,4.15.97,1.41,2.42,3.05,3.86.44,2.75-4.96,6.75-6.06,11.86-4.25.06,4.59-3.81,4.6-6.7,5.76-2.25,4.33-7.21,4.64-10.74,7.12-4.45,3.13-4.75,3.02-.47,6.69,6.63,5.68,15.38,5.52,21.89-.39,1.62-1.47,3.04-3.33,5.63-2.91,1.96.77,1.87,2.03.57,3.24-4.65,4.35-9.37,8.62-14.06,12.93-2.89,2.81-5.85.56-8.79.13-1.04-.15-2.26-.98-3.07.1-.97,1.29.2,2.29.92,3.28,2.3,3.15,5.45,3.41,8.82,2.39,1.66-.51,3.2-1.35,4.9-.27,1.14-3.04,2.27-5.22,6.6-4.15,2.71.67,5.51-2.09,7.56-4.03,2.19-2.08,4.12-2.42,6.73-1.55,1.79.59,3.7.37,5.56.48,2.99.17,3.75,1.53,1.1,3.66-1.99,2.99-5.11,1.65-7.78,2.04-2.79.41-6.46-.58-6.93,3.78-.38,3.55,3.15,6.8,7.27,7.13,5.23.42,9.68-2.51,14.62-3.35,1.85.23,3.72.39,5.51.97-.95-.24-1.88-.54-2.82-.82-3.04-1.8-6.64-3.16-6.02-7.78,1.36-3.49,1.68-7.03.07-10.49-.72-1.54-.91-2.89.76-3.54,5.43-2.1,10.37-6.06,16.89-4.2,3.06.87,4.99,2.94,7.02,5.04-.36.26-.72.53-1.08.79-1.53,1.84-3.5.99-5.28.74-1.55-.21-3.09-.54-4.63-.83-3.58-.65-7.04-.88-9.1,2.84-1.26,2.28.9,7.73,3.77,10.08,1.22.99,2.53,1.88,4.14,2.16,3.35,1.36,6.71.97,10.07.07,1.95.04,4.07-.98,5.74.88,2.86-.29,4.5,3.35,7.57,2.37-.24.54-.47,1.08-.71,1.62-5.64,2.84-11.72,4.3-17.81,5.71-2.94.58-5.97.76-8.8,1.86-1.33,1.28-2.97,1.08-4.6.96-4.2.41-8.33,1.34-12.51,1.87-8.03.46-16.07,1.12-23.78-2.08-2.78-.81-5.38-2.19-8.33-2.4Z"/>
  <path class="cls-117" d="M228.99,238.56c-1.31-4.31-2.62-8.61-3.92-12.92-.36-1.24-.88-2.52-2.39-2.37-1.48.14-1.16,1.55-1.31,2.58-.53,3.56-2.73,3.65-5.46,2.61-2.71-2.6-6.2-3.95-9.4-5.77-.57-.31-.69-1.2-1.5-1.17-.04,0,.01.5.17.78,1.64,2,3.05,4.06,3.12,6.75.44,4.95,1.82,5.89,6.16,4.16,5.85-2.32,6.43-1.94,6.47,4.33,0,1.26-.11,2.52.12,3.77.28,1.54-.44,2.84-1.84,2.67-4.55-.57-8.24,3.17-12.79,2.32-1.75-.33-2.93.73-4.05,1.95-1.28,1.41-2.85,2.52-4.62,3.22-3.78,1.5-6.36.13-7.74-4.03.43-2.55,2.71-3.83,4.01-5.79,6.59-3.39,7.28-5.04,5.57-12.76-.83-3.73-2.04-7.26-4.36-10.36-.96-1.28-1.96-2.29-3.44-.92-5.52,5.11-10.14,10.75-10.3,18.8-.27,2.35,1.36,3.65,2.74,5.15,1.53,1.68,3.82,2.88,3.84,5.62-.93,3.13,2.49,2.48,3.53,3.96.57.8,1.98.81,3.04,1.12,2,.59,3.79,1.82,3.09,3.94-.61,1.87-2.62.89-4.08.52-6.86-1.92-12.2-6.17-17.11-11.09-.02-2.01-1.35-2.72-3.03-3.1-2.13-1.87-4.27-3.74-6.4-5.62.98-1.34,1.96-2.68,2.94-4.02,4.96-4.58,5.29-14.21.46-19.72-2.48-2.84-4.97-5.73-8.4-7.6-1.47-.8-3.13-1.77-2.51-4.01-.55-1.3-1.16-2.58-1.61-3.91-.31-.89-.47-1.95.26-2.69.93-.95,1.75-.11,2.42.5,2.62,2.38,3.75-1.05,6-1.51,1.16,2.05-.18,4.72,1.35,6.65,2.05-.08,2.99,1.37,4.04,2.8,1.87,2.55,4.05,4.85,6.69,6.59,3.02,2,5,1.4,6.13-2.05,2.35-7.22.65-13.59-4.43-19.17-1.54-1.68-3.74-3.12-2.87-5.99,6.63-.63,14.55,3.98,15.84,9.23,2.89.42,2.95,2.91,3.6,4.95,2.49,7.91,5.71,11.53,13.86,15.2-.05-3.42,1.16-5.27,4.94-4.19,1.82.52,2.19-1.32,2.43-2.78.99-5.88-2.45-11.66-8.4-13.85-3.28-1.2-6.73-1.74-10.2-2.08-2.13-.21-4.12-.61-4.85-3.05,2.84-4,4.14-7.9-.81-11.45-1.87,1.22-.82,3.14-1.11,4.71-.2,1.08-.07,2.37-1.52,2.57-1.27.18-2.07-.72-2.6-1.72-.78-1.47-1.09-3.3-.15-4.55,1.58-2.12,3.34-4.01,4.07-6.68.18-.66,1.43-.13,2.16.13,2.41-.39,3.71,1.37,5.2,2.73,2.67,2.43,5.1,5.09,8.02,7.31,4.59,3.49,9.69,3.41,14.9,2.8,2.37-.28,4.1-1.35,1.72-4-.79-.88-1.06-2.06-.31-3.06,3.13-4.18-.34-5.72-3.08-6.98-5.36-2.47-11.14-1.6-16.77-1.11-2.29.2-4.4.58-6-1.52-2.55-1.89-.51-2.15.92-2.84,4.9-2.34,10.13-2.08,15.3-1.85,3.83.17,5.52-.85,4.88-5.06-.42-2.8-.54-5.87,1.87-8.76,2.11,4.4-.64,9,1.81,12.81,1.53-.02,2.77.76,3.7,1.8,3.2,3.56,7.1,6.08,11.38,8.1,1.42.67,2.82,1.46,3,3.3-1.3,2.47-3.69,1.86-5.8,2.05-4.26,3.67,1.37,3.08,2,4.64,10.64,5.27,18.52,12.98,22.14,24.61,1.39,4.48.51,8.99.74,13.48-1.19,1-2.65.24-3.94.58-3.88.71-7.75,1.52-11.59,2.45-3.52.85-6.38,2.73-8.49,5.68-.94,1.32-1.6,2.81-.89,4.44.77,1.79,2.47,1.76,4.06,1.79,5.98.14,9.4-3.88,12.77-7.94.9-1.09,1.32-2.53,2.4-3.52.37-.29.74-.57,1.05-.92.93-1.02,1.92-2.52,3.4-1.53,1.27.85.77,2.46.28,3.77l.02-.04c-.87.7-.51,1.74-.7,2.62-2.21,9.9-8.62,15.11-18.97,15.4-1.88.05-3.76.22-5.55.89-2.81,1.04-4.48-.07-5.3-2.79Z"/>
  <path class="cls-101" d="M386.83,157.77c1.75-3.2.62-6.67.91-10.01.19-2.17.49-3.64,2.79-1.41,3.27,2.59,6.46,1.37,9.66-.18,7.07-3.41,12.62-7.89,12.29-16.75-.04-1.13.6-2.11,1.69-2.68-.06-1.24-.11-2.48-.22-5,2.44,6.64,8.85,5.32,12.6,8.8,1.8,1.68,3.77-2.05,5.9-2.89.7-.28,1.33-1.01,2.1-.39.27.22.48,1.04.31,1.23-4.02,4.44.42,6.12,2.72,8.51.21.22.35.52.53.78-.61,2.21-1,4.55-3.44,5.64-4.11.37-3.95,3.99-5.14,6.57,1.12-2.37.91-5.7,4.62-6.22,3.22-.12,2.26-4.37,4.94-5.01-1.78-7.64,4.55-11.03,8.31-15.75.61-.76,1.62-.8,2.62-.52,3.87,1.06,6.42,6.27,5.15,10.6-1.36,1.43-2.84.69-4.37.31-3.8-.93-5.2.02-5.74,3.83-.24,1.71-.26,3.46,0,5.17.44,2.84,1.16,6.18,4,6.95,2.67.73,3.93-2.47,5.37-4.43,1.01-1.37,1.66-3.1,3.7-3.29,3.12.16,4.58,1.6,3.77,4.83.58,2.21-1.16,3.01-2.45,4.12-4.49,3.85-8.48,8.08-10.03,14.04-.35,1.35-1.36,2.96-.2,4.02,1.39,1.26,3.07.08,4.36-.68,5.31-3.14,9.68-7.14,10.92-13.57.4-2.07.82-4.07,3.01-5.03.02-.47,0-.94.07-1.4.2-1.46-.31-3.64,1.85-3.69,2.19-.05,1.78,2.12,1.93,3.6.08.77.04,1.56.06,2.34,2.66,5.06,6.58,8.03,12.58,7.67,1.15-.07,1.94.91,2.58,1.84,2.18,1.09,4.48,2,6.51,3.33,2.67,1.73.87,2.15-.91,2.4-1.32,1.92-3.18,1.6-5.12,1.33-3.28-.44-6.49-1.34-9.86-1.16-2.44.13-4.69.57-6.65,2.11-3.33,2.62-6.78,5.07-10.44,7.21-7.91,3.2-14.33,8.84-21.55,13.16-1.91,1.14-2.75,3.38-4.47,4.75l.06-.07c-1.21,3.62-4.46,5.91-6.02,9.33-.41.91-1.39,1.21-2.29.3l-.02-.02c-6.59-8.11-14.59-14.91-21.35-22.87-1.64-1.93-4.2-2.64-6.34-3.92-2.47-1.09-4.96-1.66-7.53-.32-.36.31-.75.54-1.17.75-2.55.68-5.26,1.96-6.63-1.78-.14-3.49,2.25-5.35,3.92-6.6-3.49,2.97-7.57,6.74-12.2,9.82-2.97.98-5.14,2.85-6.38,5.77-6.52,6.91-11.57,14.86-16.43,22.97-2.92,4.87-5.95,4.94-8.53-.1-2.7-5.28-6.66-9.95-8-15.92.67-3.16,2.67-3.18,4.98-1.93,2.28,1.23,3.91,3.2,5.15,5.45,1.73,3.13,3.94,2.82,6.18.79,2.29-2.07,4.14-4.61,3.52-7.89-.86-4.6,1.11-8.06,4.2-10.95,1.28-1.2,1.24-2.41,1.35-3.79.55-2.09,1.54-3.71,4.01-3.72,1.49-.77,1.14-2.68,2.29-3.66,1.02-.12,1.84.33,2.59.95,4.05,3.36,4.4,3.19,8.49-.24,2.95-2.48,4.62-6.52,8.91-7.38Z"/>
  <path class="cls-106" d="M473.3,401.1c-1.11-5.96-4.41-11.09-6.95-17.42,10.06,1.89,19.44,3.94,28.99,4.7,14.37,1.15,28.43-.17,41.83-5.81,2.98-1.26,6.1-2.52,8.19-5.26,2.38-4.78,6.83-7.93,9.67-12.35,4.73.5,9.52.15,14.23.97,3.36.72,6.56,1.95,9.5,3.64,3.36,1.92,3.24,3.83,0,5.88-1.53,1.98-3.49,1.68-5.52,1.04-3.27-1.04-6.71-1.35-10.02-2.28-4.08-1.15-7.72-.03-10.55,3.26-3.43,2.02-6.62,4.28-7.57,8.5-.56,2.5-2.8,2.15-4.5,2.75-1.24.27-2.46.58-3.7.82,2.48-.5,4.9-1.3,7.46-1.34,1.87-.19,3.44-1.18,5.12-1.91,1.73-.48,3.37.04,5.02.42,3.05.96,6.1,1.32,9.17.07,4.4-.94,7.77-3.79,11.28-6.3,1.81-1.29,3.44-2.69,5.87-2.15.83.25,1.63.87,1.06,1.64-2.58,3.47-5.37,7.08-9.4,8.6-6.44,2.42-7.16,3.94-3.99,10.2.9,1.79,3.23,3.74,1.34,6.3-3.02.53-4.42-1.78-5.45-3.73-3.88-7.36-15.47-7.42-21.79-5.36-2.55.83-3.26,4.45-1.75,7.33,2.21,4.21,6.16,6.17,10.26,7.95,1.82.79,4.1.94,4.84,3.32,2.58,1.64,5.84-.07,9.26,1.83-4.53,1.49-8.42.65-12.21.81-3.62.15-7.26.08-10.89.02-1.99-.03-3.53.51-5.01,2.04-3.92,4.03-8.95,4.09-14.03,3.09-1.47-.29-2.79-1.79-4.31-.32-1.39,1.34-1.71,2.94-.8,4.74,1.02,2.03.45,3.33-1.85,3.75-3.16-.7-4.44-3.38-5.81-5.79-3.61-6.35-8.93-9.27-16.24-9.28-4.41,0-9.01.44-13.1-1.99-2.01-.3-2.57-4.89-5.83-1.93-.34.31-.75-1.4-.85-2.29-.3-2.72.71-5.61-.97-8.16Z"/>
  <path class="cls-119" d="M372.44,425.65c1.29-9.66,5.07-18.37,10.31-26.48,12.9-19.95,34.86-26.42,53.82-21.88,16.67,3.99,30.52,20.87,30.15,36.95-.24,3.26.77,7.44-5.07,6.31-1.57-.3-1.56-1.27-1.69-2.36-1.14-1.47-.49-2.89-.06-4.43,1.23-4.38-.89-7.41-5.55-7.62-5.05-.23-10.08.03-13.79,4.31-.64.74-1.54,1.04-2.53,1.06-5.93-2.56-11.29-5.98-15.24-11.15-1.46-1.91-4.56-4.15-.82-6.89,1.02.17,1.68.83,2.2,1.64,5.04,7.8,15.9,8.14,23.26,3.65,3.39-2.07,3.52-4.55.65-7.25-5.22-4.89-10.78-5.67-17.44-2.9-2.56,1.06-4.71,3.33-7.82,2.93-2.84-1.14-1.1-2.66-.34-4.1.74-1.39,1.8-2.83.48-4.33-1.26-1.44-2.87-.86-4.4-.37-1.65.53-3.61.85-4.52,2.38-2.45,4.13-5.94,4.03-9.88,2.97-2.28-.61-4.05-.29-5.61,2.06-1.88,2.84-5.34,4.26-8.06,6.09-5.57,3.75-7.59,8.94-10.31,14.62-2.95,6.19-5.49,12.29-7.39,18.97l-.36-4.2Z"/>
  <path class="cls-40" d="M328.66,500.82c7.95-14.08,11.69-29.19,11.53-45.37-.15-15.47.71-30.96-3.69-46.12-5.18-17.85-15.15-32.52-29.09-44.55-5-4.32-10.46-8.1-15.72-12.13,6.28-.33,9.63,4.71,13.97,7.81,8.05,5.75,14.45,13.23,20.72,20.81,1.24,1.5,2.61,3.2,4.72,2.1,2.25-1.17,1.24-3.26.7-5.06-1.29-4.22-2.25-8.51-4.59-12.4-1.14-1.9-2.15-4.29-1.01-6.75,6.1,9.08,7.89,19.79,11.08,29.94,8.74,27.8,9.46,56.3,6.84,85.05.06,1.77.15,3.55-.98,5.09-3.04,8.84-5.49,17.94-11.5,25.43-2.46-.14-2.83-1.91-2.98-3.84Z"/>
  <path class="cls-3" d="M263.25,161.45c.91-2.19,2.58-1.87,4.31-1.29,1.23.41,2.5,1.99,3.7.32,1.01-1.41.43-3.09-.43-4.41-1.34-2.04-2.07-4.09-1.56-6.59.63-3.12,1.66-.1,2.47-.24,2.37.61,2.78,2.82,3.73,4.58,2.55,4.69,4.71,9.65,9.45,12.74,3.05,1.99,6.34,2.67,9.93,2.34,2.82-.26,3.92-1.68,3.35-4.45-1.01-4.91-3.96-8.1-8.56-9.94-3.68-1.48-7.62-2.03-11.35-3.3-1.92-.65-4.6-.69-4.62-3.79-.96-.52-2-.95-2.85-1.61-.41-.32-.7-1.11-.63-1.64.15-1.17,1.1-1.43,2.13-1.3,4.41.53,4.58-1.81,4.34-5.41-.35-5.28-.94-10.74,3.29-15.26,3.65-3.89,8.87-4.82,13.02-1.48,2.25,1.82,4.62,3.05,7.3,4.17,7.9,3.3,11.79,16.66,7.31,23.87-.58.93-1.15,1.94-1.42,2.99-.39,1.57-3.42,2.63-1.65,4.27,1.44,1.33,2.92-1.18,4.51-1.68.89-.28,1.69-.86,2.53-1.3,1.94,1.1,2.35,3.1,2.96,4.99.09,1.42.53,2.84.09,4.27-.71,1.71-2.02,1.85-3.35.96-1.44-.97-2.96-.55-4.45-.64-.59-.11-1.13-.34-1.53-.68.05.06-.33-.06-.28,0,1.6,1.53,2.91,3.19,4.17,4.91.72,1,1.06,2.09.75,3.33-1.19,2.82-4.31,2.74-6.39,4.24-2.91,0-5.91,2.55-8.72-.32-2.73.87-5.21,1.74-7.3,4.22-1.94,2.31-4.99,1.95-7.23-.59-3.34-5.05-6.6-10.14-12.68-12.45-1.82-.7-3.97-1.31-4.36-3.78Z"/>
  <path class="cls-26" d="M569.27,365.93c-4.8,3.54-9.72.42-14.59.24-2.65,4.84-7.56,5.84-12.25,7.23-1.15.38-2.31.77-3.46,1.15-6.2,3.49-10.71-1.33-15.3-3.73-3.55-1.85-2.06-6.36,2.16-7.81.8.12,1.61.37,2.09,1.01,2.35,3.16,5.34,4.37,9.13,3.04,4.44-1.56,7.01-4.63,7.48-9.85-6.03.73-11.38,3.97-17.4,3.56-1.3-.16-2.83-.57-3.15-1.76-1.43-5.25-6.3-7.58-9.38-11.41-4.06-5.04-3.84-9.56,1.14-13.82,1.06-.91,2.31-1.62,3.04-3.26-1.76-.9-3.66-.35-5.42-.61-1.82-.27-3.89-.2-3.96-2.88,3.19.76,5.95-1.94,9.15-1.15,2.95-.56,5.89-.59,8.82.1.9.21,1.76.48,2.75.3,6.39-1.16,7.89-.24,10.62,6.38,5.72,3.68,12.01,5.92,18.72,6.57,4.67.45,9.42-.08,14.12.17,2.52.13,5.45-.16,7.03,2.71-.85,1.99-2.66,1.98-4.39,2.08-2.21.12-4.42.06-6.63.08-9.76.08-13.32,2.87-15.67,12.27-1,3.99-.24,5.01,3.95,5.3,7.79.54,16.13-5.12,20.01-13.41.8-1.7.66-4.3,3.53-4.41,1.42-.37,3.1-1.04,2.31,1.63-1.89,6.39-4.27,12.49-10.57,15.95-1.82,1-3.58,2-3.89,4.33Z"/>
  <path class="cls-39" d="M228.01,406.74c6.91-28.31,35.04-36.3,57.2-27.75-3.12,2.05-6.69-.05-9.97,1.14-1.76.63-4,.53-4.72,2.54-.66,1.84.94,3.16,2.04,4.48,6.26,7.43,3.07,12.05-3.46,15.91-2.83,1.68-5.72,3.33-8.76,4.57-2.37.97-3.12,2.78-3.78,4.86-2.58.97-3.75-1.17-5.01-2.55-3.2-3.49-7.18-4.28-11.57-3.82-5.28.55-7.49,5.3-4.97,10.03,1.19,2.24,3.82,3.32,4.41,5.94-.87.26-1.9.96-2.59.72-4.33-1.53-8.24-1.26-11.67,2.05-.75-2.07-.66-4.06.5-5.97,1.18-3.97,1.85-8.05,2.36-12.15Z"/>
  <path class="cls-31" d="M119.78,411.55c2.63-3.69,5.49-7.23,7.82-11.11,3.53-5.88,9-7.6,15.25-7.71,5.06-.08,10.11.06,14.37,3.56,1.77,1.45,2.13,2.67.98,4.81-5.75,10.79-15.61,15.71-27.5,13.29-3.23-.66-6.68.97-9.71-1.12-.41-.58-.81-1.16-1.22-1.74Z"/>
  <path class="cls-175" d="M364.88,502.8c14.42,18.78,33.87,28.55,56.95,31.84,24.13,3.44,47.22-.41,69.48-10,3.21.25,1.59,1.41.66,2.78-1.36,2.01-4.76,1.05-5.42,3.9-2.11,3.99-6.26,2.75-9.55,3.7h.05c-2.78,1.19-5.8,1.3-8.71,1.87-7.22,1.48-14.54,2.34-21.87,2.68-28.73,1.33-55.34-4.21-77.17-24.61-2.9-2.71-5.45-5.68-7.26-9.23-.96-2.84.49-3.33,2.85-2.93Z"/>
  <path class="cls-115" d="M361.98,171.83c1.16,3.76-2.13,5.73-3.66,8.23-1.2,1.94-1.6,3.42-1.24,5.61.85,5.17-2.38,10.72-6.78,12.28-3.08,1.09-5.56,1-6.71-2.78-.83-2.72-3.09-4.34-5.28-5.91-1.16-.83-1.67,0-2,1-4.73-.88-7.14-3.95-8.03-8.46-1.03-3.12-3.01-6.21-.21-9.45,1.23-1.42,2.28-3.04,4.55-2.52,1.38.84.45,4.4,3.65,3.07,1.29.29,2.38.08,3.48-.83,2.12-1.76,4.57-1.91,7.12-.99,3.09.31,4.07-.88,3.92-4.12-.18-3.66-.92-7.47.71-11.05,1.99.78,1.99,2.56,2.14,4.26.13,1.54.28,3.07.61,4.6.92,4.24,3.1,6.96,7.73,7.08Z"/>
  <path class="cls-137" d="M540.64,202.66c.14,4.87,2.2,9.46,2,14.41-.27,7.02-6.04,15.36-12.63,17.32-3.6,1.07-6.86,1.13-9.05-3.3-3.97-8.01-3.5-14.36,3.02-20.56,4.4-4.19,8.8-8.55,14.67-10.81.66.98,1.33,1.96,1.99,2.94Z"/>
  <path class="cls-112" d="M480.95,413.48c6.09-1.56,12.18.01,18.24.24,4.56.17,8.3,2.99,10.87,6.75,2.21,3.22,4.66,6.34,6.03,10.07-9.12,2.99-18.37,3.92-27.78,1.63-3.15-.77-5.57-2.84-7.72-5.21-1-1.1-1.86-2.26-.84-3.76,1.75-2.59,2.59-4.77-.55-7.29-1.52-1.22,1.33-1.42,1.74-2.42Z"/>
  <path class="cls-125" d="M555.95,414.59c-7.26-.88-13.3-3.9-17.14-10.33-3.61-6.04-1.46-10.12,5.48-10.92,3.44-.39,6.84-.73,10.34-.3,5.05.62,8.78,2.93,11.45,7.24,1.06,1.72,2.49,3.21,3.76,4.8,5.2,8.42,5.2,8.45-4.95,9.21-2.97.22-5.96.21-8.95.3Z"/>
  <path class="cls-188" d="M159.61,201.53c4.77,2.97,9.38,6.05,12.96,10.58,4.67,5.9,4.15,12.24,2.21,18.74-.63,2.1-2.22,3.51-4.71,2-.71-2.03-1.58-3.96-3.94-6.34.84,3.16,1.39,5.22,1.96,7.35-6.5-.43-13.17-6.03-14.67-12.64-1.41-6.2-.44-12.23,2.5-17.9.79-1.53,1.74-2.69,3.7-1.8Z"/>
  <path class="cls-99" d="M194.8,186.19c4.36.73,8.77,1.26,13.07,2.24,8.24,1.87,12.69,7.41,12.73,15.4.04,7.03-1.93,8.38-8,5.49.32,2.23,4.09,3.97,2.22,5.92-1.76,1.83-4.32-.68-6.42-1.6-9.42-4.14-13.07-12.31-14.99-21.66.6-1.89-.4-4.18,1.38-5.79Z"/>
  <path class="cls-41" d="M459.07,173.92c2.52-1.83,5-3.68,7.22-5.92,6.06-6.1,13.48-4.83,20.82-3.39,1.69.33,3.3,1.01,5.07.81,1.73,2.07,5.69.17,6.6,3.7-2.4,2.7-4.73,5.47-7.22,8.1-6.18,6.53-16.3,9.01-22.92,5.53-1.67-.88-4.4-1.43-3.73-4.17.6-2.42,3.01-1.76,4.83-1.89.61-.04,1.23-.09,1.88-.52-3.23-.38-6.45-.77-9.68-1.15-1.09-.02-2.26.16-2.87-1.1Z"/>
  <path class="cls-63" d="M225.19,300.35c-2.44-3.68-5.49-7.35-1.49-11.77,3.47-3.85,7.43-6.55,13.08-6.37,8.69.27,13.64,3.37,15.93,11.61,1.81,6.51,7.61,6.61,12.07,7.2,15.21,2.04,15.51,12.66,12.87,22.95-.76,2.95-1.55,6.17-3.74,8.64-6.47-.31-10.72-4.96-15.55-8.29-3.05-2.1-5.89-4.74-7.85-8.11-1.9-3.26-5.49-4.17-8.67-5.42-2.63-1.03-5.2-2.18-7.78-3.32-3.33-1.91-7.98-2.19-8.88-7.12Z"/>
  <path class="cls-95" d="M161.3,407.74c2.72-5.34,6.57-9.59,11.85-12.53,4.48-2.49,9.12-2.06,13.79-.9,1.57.39,2.05,1.71,2.18,3.29.75,8.85-5.44,17.39-14.3,19.65-4.05.07-8.11.11-12.16.23-3.88.11-5.15-1.36-3.32-5.03.76-1.52,1.32-3.13,1.97-4.7Z"/>
  <path class="cls-17" d="M346.87,171.08c-2.67,1.64-6.08,1.6-8.51,3.9-.92.87-1.66-.09-1.97-1.11-.97-1.7,0-2.99.91-4.27,2.05-2.85,3.03-5.99,2.72-9.3-2.23,3.34-1.14,9.26-7.36,9.89-1.51.72-2.2,2.18-3.03,3.47-2.71,4.2-2.03,5.52,2.93,5.87-.38,2.4-2.08,2.31-3.87,2.07-2.65,1-4.07-.97-5.64-2.42-1.73-1.6-3.42-3.24-5.04-4.97-1.02-2.06-3.09-3.38-3.92-5.58q-.1-4.17,5.76-2.42c4.86,2.27,5.74,1.83,9.09-4.6,2.49-3.81,4.43-7.73,2.51-12.43-.52-2.44-1.9-4.05-4.38-4.62-2.97-2.38-6.01.41-9-.13-.57-3.36,1.33-4.87,4.23-5.59,1.15-.29,2.78.21,3.14-1.41.28-1.27-1.01-1.86-1.85-2.49-4.13-3.11-5.69-7.18-5.33-12.34.22-3.21.73-6.6-1.17-9.66-.62-.99-.69-2.42.66-2.73,1.71-.4,1.35,1.26,1.51,2.23.47,2.7-.96,5.69,1.27,8.12,1.94.3,2.34,1.94,2.81,3.39,1.99,6.18,5.91,10.87,11.86,13.14,5.26,2,6.41,6.35,7.99,10.72,1.72,4.21,3.56,8.39,3.77,13.04.35,1.82-1.31,3.96.84,5.51,1.44,1.93-1.15,3.05-.95,4.73Z"/>
  <path class="cls-141" d="M198.51,165.37c5.65-.44,11.27-1.23,16.96-.99,3.92.17,7.37,1.32,10.32,4.02,4.62,4.23,4.64,4.68-.39,8.12,1.67,1.05,4.5,1.28,4.26,3.81-.25,2.6-3.02,3.12-5.05,3.6-7.69,1.79-14.8.6-20.64-5.11-3.16-3.09-6.1-6.41-9.13-9.62.11-2.34,2.51-2.5,3.68-3.83Z"/>
  <path class="cls-164" d="M234.66,305.88c2.97,1.08,5.94,2.18,8.91,3.24,4.12,1.48,7.25,3.85,9.87,7.62,3.74,5.38,9.74,8.42,15.17,11.94,1.86,1.21,3.85,2.19,5.32,3.93,2.62,4.48-1.37,2.77-2.61,2.44-7.47-2-14.96-3.98-22.26-6.51-6.84-2.38-13.46-5.42-20.15-8.23-1.43-.6-2.94-1.21-3.86-2.94,4.75-3.17,9.95-.61,15.64-1.15-2.5-1.18-4.3-2.03-6.11-2.88-2.4-2.51-2.65-5,.08-7.45Z"/>
  <path class="cls-34" d="M386.83,157.77c-2.17,4.31-5.55,7.57-9.29,10.46-4.89,3.78-6.37,3.47-9.48-1.78-.4-.67-.81-1.35-1.21-2.02-.72-2.73-1.36-5.48-2.16-8.19-2.02-6.85,2.5-13.49,9.66-14.1,11.08-.94,13.16.99,12.71,11.84-.05,1.26-.15,2.51-.23,3.77Z"/>
  <path class="cls-23" d="M176.88,343.12c-4.57,5.08-9.23,9.43-16.95,9.57-8.31.15-12.65-5.61-17.95-10.13-.96-.82-.44-1.7.77-1.96,6.51-1.39,11.26-6.7,17.82-7.98,5.37-.55,10.15.72,14.45,4.16,2.28,1.82,3.36,3.6,1.86,6.34Z"/>
  <path class="cls-140" d="M526.43,200.51c-2.09,4.99-5.91,8.5-10,11.78-3.78,3.04-6.21,2.66-8.96-1.47-4.6-6.93-3.62-14.15,2.14-20.76,2.47-2.83,5.53-5.14,8.32-7.68,2.95-1.43,4.55-.12,5.6,2.62.54,1.42,1.33,2.74,2.01,4.11,0,0,.02.04.02.04,1.72,3.68,1.96,7.47.86,11.36Z"/>
  <path class="cls-10" d="M183.33,286.14c-.01,5.77-4.93,12.14-9.17,11.88-8.05-.5-15.44-7.64-14.54-14.44.65-4.93,2.72-9.35,6.4-12.89,1.34-1.29,3.06-2.49,4.58-1.11,4.16,3.77,9.19,6.71,11.86,11.97.74,1.47.88,3,.87,4.59Z"/>
  <path class="cls-52" d="M414.17,126.75c1.43,14.24-5.78,18.49-18.37,23.42-3.61,1.41-5.38.05-5.27-3.81.13-13.36,6.39-22.03,18.68-26.15,1.67-.56,2.34.02,2.88,1.32.72,1.73,1.39,3.48,2.08,5.22Z"/>
  <path class="cls-167" d="M581.43,344.02c-1.73,8-6.06,14.02-13.4,17.83-4.89,2.53-9.95,2.84-15.18,1.37-1.94-.54-2.81-1.61-2.44-3.83,2.01-12.33,7.84-17.28,20.28-17.13,3.31.04,6.63-.09,9.95-.14.27.09.54.13.83.14-.01.59-.02,1.18-.03,1.77Z"/>
  <path class="cls-47" d="M141.28,249.14c-2.68-6.65-3.18-13.42-1.24-20.36.66-2.36,1.47-3.66,4.03-1.57,2.55,2.09,5.38,3.83,8.1,5.73,5.93,4.14,9.33,9.69,9.44,17.05,1.09,2,.22,3.98-.09,5.95-.48,3.08-2.65,3.92-5.2,3.09-4.47-1.46-8.77-3.42-12.93-5.63-1.67-.89-2.61-2.25-2.12-4.26Z"/>
  <path class="cls-166" d="M177.57,182.74c4.36,4.9,9.67,9.19,10.26,16.44.11,1.41.55,2.84.4,4.2-.46,3.98-1.15,8.55-4.99,10.16-3.79,1.59-6.39-2.32-9.06-4.67-2.65-2.33-4.58-5.19-6.16-8.31-.62-5.95.58-11.42,3.19-16.9,2.08-4.37,3.75-4,6.36-.92Z"/>
  <path class="cls-178" d="M553.14,226.11c1.4,6.16,2.24,12.35.59,18.58-1.68,6.32-14,13.84-20.02,12.37-1.21-.3-1.37-1.18-1.4-2.13-.42-12.02.1-17.05,10.37-22.63,3.31-1.8,6.31-4.14,9.46-6.23.33.01.66.03,1,.05Z"/>
  <path class="cls-83" d="M572.07,297.36c2.6.2,5.25.8,7.65-.86.87.78,1.14,1.71.72,2.82-2.8,3.56-4.89,7.62-8.36,10.7-5.96,5.29-17.27,6.23-23.98,1.74-1.17-1.26-2.25-2.55-4.3-2.45-1.44.07-1.87-.92-1.32-2.25,3.82-4.74,8.18-8.67,14.49-9.69,5.04-.57,10.07-.56,15.11,0Z"/>
  <path class="cls-151" d="M143.4,373.63c.56,3,3.49,4.25,4.99,6.65,2.3,3.69.85,5.59-2.16,7.07-7.87,3.87-15.58,3.79-22.92-1.45-3.3-3-7.48-5.15-9.58-10.09,10.02-1.53,19.4-6.78,29.68-2.19Z"/>
  <path class="cls-88" d="M152.64,309.68c-4.09.1-7.13,2.96-10.78,4.27-5.94,2.14-10.93,1.24-15.84-2.18-3.62-3.5-7.06-7.15-9.54-11.6-.74-1.33-1.72-2.84.93-2.74,6.61.25,13.28-1.46,19.81-.02,7,1.54,12.61,5.24,15.41,12.27Z"/>
  <path class="cls-45" d="M422.83,391.56c7.26-8.36,19.24-8.99,27.26-1.43,3.73,3.51,3.42,7.21-.85,10.16-7.04,4.87-16.04,4.83-23.11.13-2.59-1.72-4.14-3.8-4.15-6.93.28-.64.56-1.28.84-1.93Z"/>
  <path class="cls-155" d="M141.54,363.07c-6.77,3.26-13.07,1.68-19.18-1.86-3.79-4.07-6.64-8.71-8.57-13.94-1.02-2.76-.49-4.24,2.71-4.24,3.61,0,7.22-.07,10.84-.12,3.98.72,8.39.24,11.25,4.05-1.05,3.3,2.25,5.17,2.62,7.95.36,2.69,3.33,5.31.34,8.14Z"/>
  <path class="cls-177" d="M209.04,365.92c-5.09-1.46-7.36-5.72-9.11-10.01-2.2-5.41,2.57-10.4,8.91-9.51,4.16.58,8.26,1.67,12.38,2.53,1.29.86,2.71,1.59,3.85,2.62,1.04.94,2.01,2.06-.12,3.2-3.46,1.86-1.54,3.56.35,5.23,1.6,1.41,3.96,2.81.64,4.89-1.82.43-3.54,1.37-5.5,1.07-3.8.76-7.59.78-11.39,0Z"/>
  <path class="cls-30" d="M273.67,147.42c4.73,2.68,10.19,2.9,15.26,4.43,7.34,2.22,10.71,7.3,11.94,14.32.53,3.05-1.58,4.27-4.06,4.82-7.52,1.69-13.42-1.23-17.81-7.09-3.28-4.38-5.99-9.2-7.27-14.65.11-1.18.6-1.96,1.94-1.83Z"/>
  <path class="cls-128" d="M348.3,100.72c3.56,8.81,7.98,17.38,7.22,27.41-.28,3.72-1.56,6.99-4.27,9.73-2.65,2.67-4.84,2.62-6.88-.58-4.62-7.24-5.56-15.11-3.14-23.17,1.38-4.62,3.83-8.93,5.79-13.37.43,0,.86-.01,1.29-.02Z"/>
  <path class="cls-18" d="M263.25,161.45c5.3,1.38,9.94,3.86,13.84,7.78,2.37,2.39,3.8,5.01,3.2,8.46-2.03,3.97-4.94,7.21-8.36,10.02-1.5,1.23-3.18,1.87-4.57.18-4.88-5.9-10.05-11.69-9.84-20.11.09-3.8,1.35-6.46,5.73-6.33Z"/>
  <path class="cls-8" d="M551,376.38c3.5-5,8.32-5.39,13.73-4.07,4.66,1.14,9.36,2.09,14.04,3.13.72.94,2.75.94,2.06,2.89-5.02,4.22-9.97,8.56-16.41,10.59-3.43.46-6.86.5-10.29-.02-1.61-.46-3.17-1.23-4.92-.92-4.86-.81-5.9-2.95-2.86-6.32,1.58-1.74,2.56-4,4.65-5.28Z"/>
  <path class="cls-179" d="M296.48,347.82c-10.04-4.82-13.19-10.85-11.09-21.04.57-2.77,1.53-4.08,4.8-3.16,4.71,1.33,9.41,2.45,13.4,5.5,2.2,1.68,3.81,3.72,4.46,6.45-.2,2.51,2.92,5.61-1.31,7.4-2.07.15-2.89,2.22-4.56,2.99-1.41,2.11-3.06,3.5-5.69,1.86Z"/>
  <path class="cls-84" d="M158.25,261.54c1.74,5.9-.67,11.17-2.61,16.48-.42,1.16-1.48,1.58-2.72,1.43-.47.06-1.07.25-1.39,0-8.08-6.47-17.68-11.61-20.44-22.85-.45-1.84-.89-3.65-.02-5.48,2.66-3.04,4.16,1.56,6.45.98,6.13-.07,10.62,4.28,16.09,6,1.83.57,4.13.9,4.63,3.43Z"/>
  <path class="cls-21" d="M241.36,172.87c-7.31-2.64-13.97-6.17-18.09-13.19-.03-3.47-.25-6.96-.03-10.42.23-3.8,2.09-4.84,5.33-2.86,8.4,5.13,15.4,11.5,18.14,21.5.82,3.01,1.35,5.22-3.08,4.37-.69-.13-1.51.38-2.27.6Z"/>
  <path class="cls-22" d="M239.42,422.09c-4.51-1.25-8.44-6.3-8-10.25.55-4.91,4.35-7.68,9.94-8.02,7.1-.43,11.35,3.67,15.2,8.67,1.32,7.58.57,8.59-7.33,10.14-3.33.65-6.57.18-9.82-.54Z"/>
  <path class="cls-50" d="M438.04,411.52c2.95-6.38,15.28-10.18,21.06-6.49,4.24,2.7,4.5,6.58.86,13.17-4.34,4.52-16,5.28-20.94,1.52-3.27-2.49-1.32-5.39-.99-8.2Z"/>
  <path class="cls-66" d="M340.98,148.25c.17-5.83-4.4-7.58-8.41-9.95-6.76-4-11-9.82-12.04-17.75-.07-2.84-.18-5.67-.21-8.51-.02-2.23.71-2.71,2.87-1.57,7.03,3.72,12.38,8.57,13.46,17.02.65,5.07,3.41,9.43,5.34,14.07-.58,2.19,2.01,4.86-1.01,6.69Z"/>
  <path class="cls-168" d="M517.87,506.64c-33.31,15.78-67.87,21.38-104.11,13.06,2.42-1,4.86-.46,7.3-.16,29.9,3.59,58.65-1.08,86.47-12.15,4.54-1.81,8.81-4.32,13.2-6.5,1.3.14,2.95.19,1.27,2.03-1.24,1.36-2.75,2.49-4.13,3.72Z"/>
  <path class="cls-181" d="M353.45,141.54c3.55-5.62,6.06-11.52,6.93-18.26.75-5.81,7.91-11.45,13.83-11.99,1.38-.12,2.57.11,2.85,1.73,1.88,10.97-3.34,22.9-13.97,25-1.54.3-3.15,1.05-3.9-1.18,1.22-1.64,2.45-3.28,2.86-5.35-.38,2.09-1.7,3.68-2.81,5.39-1.32,1.53-1.56,3.84-3.54,4.9-.77.07-1.58.57-2.25-.24Z"/>
  <path class="cls-94" d="M147.18,281.44c-.66-.35-1.67-1.17-1.92-.99-1.48,1.12.35,2.47-.07,3.75-1.35-.2-1.2-2.3-3.12-2.2-.38,2.67,1.53,4.55,2.43,6.7.79,1.91.93,3.09-1.69,2.85-9.47-.86-18.12-9.36-19.18-18.86-.58-5.19.18-5.86,5.23-4.69,1.69.39,3.4.67,5.11,1,6.48-1.28,9.1,4.29,13,7.47,1.52,1.24,1.93,3.24.2,4.96Z"/>
  <path class="cls-32" d="M173.86,501.84c18.06,8.56,36.8,14.94,56.7,17.42,13.22,1.65,26.48,1.76,39.74.21,2.18-.26,4.38-.34,7.74-.6-2.81,1.95-4.95,2.47-7.14,2.82-29.34,4.7-57.57.39-84.98-10.54-1.47-.59-2.95-1.13-4.43-1.69-2.5.15-4.21-2.52-6.84-1.93-.27-1.9-.53-3.8-.8-5.71Z"/>
  <path class="cls-102" d="M197.57,361.32c2.19,2.18,4.38,4.36,6.57,6.54.65,2.55-1.99,1.72-2.82,2.74-5.22,2.16-10.42,4.35-16.3,3.8-4.75-.44-9.94-7.03-8.87-11.5.41-1.74,1.97-2.29,3.51-2.79,4.62-1.51,9.36-.68,14.06-.78,1.28.66,2.57,1.32,3.85,1.98Z"/>
  <path class="cls-163" d="M467.52,149.34c-.62,11.43-6.54,18.71-17.29,22.34-3.34,1.13-4.49-.01-4.01-3.27,1.45-10.01,7.43-16.8,15.68-21.96,3.15-1.51,5.05-.61,5.62,2.89Z"/>
  <path class="cls-135" d="M133.04,333.67c-6.71-1.98-11.62-6.51-16.24-11.45.66-.37,1.32-.74,1.99-1.11,3.82,0,7.63.01,11.45.02,4.71-.55,9.42-.58,14.13.01,6.29,3.7,6.07,6.67-.92,12.53-3.47.68-6.93.67-10.4,0Z"/>
  <path class="cls-139" d="M188.15,289.88c1.74-4.43,3.66-8.67,7.79-11.58,1.49-1.05,2.28-1.4,3.36.24,2.98,4.5,5.92,8.97,6.1,14.68.11,3.39-.64,6.57-3.32,8.47-2.88,2.04-5.3-.6-7.68-2.01-.93-.56-1.74-1.32-2.61-1.98-4.68-.74-4.82-1.05-3.66-7.81Z"/>
  <path class="cls-46" d="M234.66,305.88c-.03,2.49-.05,4.97-.08,7.45-5.71-2.21-11.71-1.4-17.61-1.68-4.83-.23-9.14-9.64-6.39-13.71,1.03-1.52,2.33-1.16,3.77-.72,3.6,1.09,7.23,2.1,10.85,3.13,3.16,1.84,6.31,3.68,9.47,5.53Z"/>
  <path class="cls-43" d="M250.95,142.85c.42,5-3.04,8.13-5.52,11.69-.78,1.13-1.87,1.06-2.83.12-2.82-2.74-5.96-5.2-7.3-9.15-1.26-3.73-.71-7.06,2.68-9.17,3.07-1.91,5.69-7.22,9.16-5.17,3.39,2,3.06,7.54,3.81,11.68Z"/>
  <path class="cls-103" d="M199.59,523.51c10.47,4.01,21.01,7.81,32.04,9.99,14.59,2.89,29.26,2.38,43.94.74.1,1.7-1.09,2.24-2.39,2.27-7.54.13-15,2.3-21.35,1.26,4.64,1.45,10.43-1.31,16.29-.75,1.64.16,3.52-.67,4.82,1.06-13.47,2.7-26.95,1.72-40.37-.24-7.26-1.06-14.49-2.45-21.52-4.67-2.28.19-4.14-2.27-6.59-1.02-.37-.26-1.09-.68-1.05-.76,1.75-4.11-1.26-5.88-3.81-7.87Z"/>
  <path class="cls-134" d="M458.13,141.63c-.93,4.6-4.28,7.6-7.24,10.83-.71.78-1.64,1.49-2.88.61-4.06-2.87-6.64-14.47-4.34-19.26,1.72-3.58,3.97-5.01,7.68-2.5,1.15.78,2.53,1.2,3.81,1.79,2.08,2.47,3.2,5.27,2.97,8.54Z"/>
  <path class="cls-108" d="M333.58,148.23c2.2,5.42-.25,9.96-2.74,14.49-3.08-2.02-6.3-3.73-9.65-5.33-3.6-1.71-6.18-2.08-8.58,1.38-1.45-1.72-.75-3.83-1.06-5.76,1.52-3.36,3.74-6.19,6.52-8.59,2.73-3.16,5.76-4.67,9.61-1.79,2.51,1.29,4.19,3.44,5.89,5.59Z"/>
  <path class="cls-90" d="M361.98,171.83c-4.7,3.08-5.52,2.75-8.29-2.1-2.51-4.4-2.05-9.13-2.19-13.84.16-.27.24-.56.23-.87.7-1.29.01-3.04,1.39-4.1,2.73-1.47,5.46-3.39,8.06.19,1.78,5.53,4.08,10.96,3.38,16.98-.86,1.24-1.72,2.49-2.58,3.73Z"/>
  <path class="cls-156" d="M296.48,347.82c2.27.54,3.68-1.57,5.69-1.86,1.5,2.1,3.52,2.02,5.19.64,2.82-2.33,3.61-1.47,4.07,1.75.38,2.68,2.83,3.46,5.1,4.31,4.72,1.75,6.63,5.53,5.24,10.08-.68,2.22-4.99,3.4-6.76,1.55-5.72-6.01-13.72-9.44-18.53-16.46Z"/>
  <path class="cls-105" d="M294.81,174.05c3.1-.35,6.2-.7,9.29-1.05,3.87-.14,2.39,1.84,1.44,3.62-1.41,1.64-3.45,1.9-5.38,2.47-3.94,1.14-7.65,2.67-9.21,6.98-5.02,5.85-8.17,12.88-12.12,19.41-1,1.64-1.45,3.97-4.18,3.66-1.7-5.68,3.29-8.99,5.08-13.57-2.86,1.32-5.47,2.52-8.35,2.95,6.64-9.27,14.64-17.25,23.44-24.45Z"/>
  <path class="cls-86" d="M486.59,159.7c-2.83-.05-5.71.25-8.47-.22-5.16-.89-7.06-3.8-6.7-9.28.32-1.03.69-2.05.96-3.09.61-2.35,1.72-2.62,3.72-1.24,3.3,2.28,6.73,4.38,10.14,6.49,5.09,3.16,5.13,3.68.35,7.35Z"/>
  <path class="cls-111" d="M386.64,548.49c-11.39-5.9-20.52-13.96-25.32-26.25,8.49,8.5,17.2,16.64,28.35,21.6-1.13,1.47-.3,4.22-3.03,4.65Z"/>
  <path class="cls-82" d="M166.17,364.93c-8.38,4.71-14.1,3.55-17.33-3.58-.49-1.09-1.66-2.28-.81-3.49,1-1.43,2.75-1.55,4.32-1.21,3.7.79,7.36,1.75,11.03,2.64,1.76,1.47,3.54,2.93,2.78,5.64Z"/>
  <path class="cls-158" d="M147.18,281.44c-.94-5.5-5.64-7.57-9.53-10.35-1.14-.81-2.45-1.4-3.68-2.09-.04-4.02-2.62-7.29-3.29-11.13-.4-2.3-1.21-4.58.38-6.75.24,5.71,2.48,10.5,6.47,14.56,4.84,4.92,10.82,8.55,15.38,13.77.64.92,3.64,1.46.42,3-1.47.7-1.95,2.95-4.09,2.67-.69-1.23-1.39-2.45-2.08-3.68Z"/>
  <path class="cls-131" d="M158.25,261.54c-7.02-2.89-14.33-5.15-20.72-9.43,1.18-1.07,2.09-2.5,3.75-2.96,4.2,4.88,10.23,6.29,15.92,8.29,2.01.71,3.31-.22,3.64-2.37.26-1.69.51-3.38.77-5.07.95-.4,1.89-.81,3.85-1.64-2.34,3.19-2.98,5.91-3.39,8.83-.25,1.79-.67,4.58-3.82,4.35Z"/>
  <path class="cls-172" d="M340.98,148.25c.45-2.21-.7-4.67,1.01-6.69,4.14,6.98,8.05,14.02,6.68,22.62-3.87,2.49-2.79-1.36-3.59-2.81-.46-4.66-2.22-8.92-4.11-13.13Z"/>
  <path class="cls-107" d="M188.15,289.88c-.77,3.54.66,6.04,3.66,7.81,1.09,4.89,5.13,6.91,8.96,9.09.77.44,2.09.38,1.83,1.66-.21,1.03-1.31,1.18-2.27,1.35-4.07.72-11.14-5.08-12.62-10.74-.79-3.01-1.18-6.19.44-9.17Z"/>
  <path class="cls-38" d="M256.51,152.4c-.35,3.86-1.69,7.14-5.63,8.56-2.46.89-3.93-.06-3.07-2.73.82-2.53,2.09-4.93,3.35-7.28.69-1.29,1.21-3.38,3.21-2.86,1.99.52,2.17,2.48,2.14,4.3Z"/>
  <path class="cls-25" d="M353.42,563.49c1.48-2.53-.07-5.83,2.07-8.2-1.07,5.79,2.62,9.45,6.04,13.11,2.24,2.4,4.84,4.45,8,7.31-4.98-.84-7.4-3.95-10.25-6.37-2.11-1.79-2.98-4.82-5.86-5.84Z"/>
  <path class="cls-183" d="M428.61,561.77c1.82-3.62-2.8-1.1-2.82-2.97,7.13-.53,14.26-1.07,21.39-1.6-5.92,2.96-12.08,4.51-18.57,4.56Z"/>
  <path class="cls-121" d="M389.55,570.38c.97-.79,2.43.36,3.23-.82.05-.08-.82-.79-1.26-1.2,5.42.25,10.42,2.68,15.88,2.86-6.06.93-12.01.96-17.86-.84Z"/>
  <path class="cls-4" d="M521.75,499.92c2.32-5.76-2.77-.24-3.07-2.01,4.11-2.99,9.05-3.82,13.85-5.26-3.15,3.15-6.36,6.09-10.78,7.27Z"/>
  <path class="cls-145" d="M175.58,498.1c-1.57.14-3.28.02-3.77,2.11-3.79-1.78-7.32-3.91-9.87-7.53,4.56,1.85,9.47,2.65,13.64,5.42Z"/>
  <path class="cls-87" d="M353.45,141.54c.78-.19,1.6-.82,2.25.24-.12.54-.23,1.08-.35,1.62.08,3.99-1.39,7.22-4.65,9.59-2.47-.94-2.25-2.86-1.36-4.62,1.19-2.36,2.72-4.56,4.11-6.83Z"/>
  <path class="cls-169" d="M361.18,151.12c-2.7-.58-5.26.04-7.78.91-.28-4.74,1.28-6.85,4.9-6.59,1.95,1.39,2.9,3.29,2.89,5.68Z"/>
  <path class="cls-61" d="M336.57,562.86c.27.59.54,1.18.81,1.77-3.08,4.46-7.09,7.82-12.32,10.6,4.09-4.4,7.8-8.39,11.51-12.38Z"/>
  <path class="cls-20" d="M434.26,142.56c1.29-1.59,2.04-3.61,3.85-4.78.33.33.65.65.98.98-.51,1.98-1.22,3.94-1.47,5.96-.16,1.31.05,2.81-1.6,2.9-2.25.12-1.46-1.9-1.75-3.12-.55-.65-.51-1.29,0-1.94Z"/>
  <path class="cls-129" d="M477,535.03c2.86-2.06,6.57-1.94,9.55-3.7.67.38,3.77-.18,1.1,1.59-2.59,1.72-5.33,3.68-8.69,4,.59-1.93-1.1-1.47-1.96-1.88Z"/>
  <path class="cls-156" d="M306.73,342.98c.44-2.47.87-4.94,1.31-7.4.41.65.76,1.34,1.23,1.94.95,1.2,3.46,1.61,2.36,3.84-.98,1.97-3.03,1.78-4.9,1.62Z"/>
  <path class="cls-115" d="M358.29,145.45c-4.13.34-3.57,4.17-4.9,6.59-.56,1-1.12,2-1.67,2.99-.34-.68-.68-1.36-1.03-2.04,1.07-3.43,2.91-6.48,4.65-9.59.98.68,1.96,1.36,2.94,2.04Z"/>
  <path class="cls-64" d="M237.57,179.56c-1.15-.4-2.44-.59-3.42-1.25-1.35-.91-4.55-.59-3.58-3.11.85-2.2,3.27-.35,5-.28-.02.34-.04.67-.05,1.01-.99,2.16,1.97,2.08,2.05,3.63Z"/>
  <path class="cls-81" d="M226.15,419.14c-1.24,1.75-1.04,3.75-1,5.72-.4.95-.4,2.18-1.72,2.5-.35-.52-.7-1.04-1.06-1.55-.69-.87-.89-1.78-.19-2.75.71.01,1.67,1.3,1.98-.61.38-2.42.37-4.99,1.94-7.1.79,1.25.74,2.52.04,3.79Z"/>
  <path class="cls-13" d="M174.67,507.55c3.26-2.84,4.69.8,6.83,1.93-2.91.88.19,1.92-.08,2.88-2.86-.74-4.41-3.34-6.76-4.8Z"/>
  <path class="cls-115" d="M345.09,161.39c.89,1.32.64,4.11,3.59,2.81-.29.72-.58,1.44-.87,2.16-1,.62-1.35,2.61-2.77,2.03-1.64-.66-.27-2.16-.23-3.28.04-1.24.19-2.48.29-3.71Z"/>
  <path class="cls-35" d="M204.46,532.15c2.72-3.06,4.5,0,6.59,1.02-.69.36-1.39.71-2.08,1.07-1.5-.7-3-1.39-4.51-2.09Z"/>
  <path class="cls-121" d="M379.95,568.54c3.37-.2,6.6.28,9.63,1.85-3.41.4-6.6-.32-9.63-1.85Z"/>
  <path class="cls-183" d="M425.81,558.8c-3.25.38-6.51.88-9.52-1,3.21,0,6.39.19,9.52,1Z"/>
  <path class="cls-176" d="M274.64,209.13c4.55-8.32,8.38-17.08,15.01-24.11,3.79-2.68,7.2-5.85,12.62-5.16,2.27.29,4.1-2.57,6.44-3.52,1.57-.63,2.83-1.98,4.66-2.08,3.8.95,5.27,4.37,7.28,7.1,8.01,10.85,14.95,22.29,19.22,35.22,3.49,10.58,3.59,21.46,3.4,32.38-.19,10.92-.35,21.81,4.32,31.97,4.32-10.65,7.03-21.8,6.63-33.53-.48-14.21.63-28.1,6.63-41.3,4.87-10.73,11.21-20.51,18.37-29.81,1.1-1.42,2.36-3.14,4.71-2.4,1.87,2.78,3.92-.42,5.86.17,9-.4,14.75,4.83,19.9,11.3,3.69,4.64,5.64,10.02,7.37,15.54,3.77,8.54,6.81,17.24,8.2,26.58,3.51,23.49-4.77,42.2-22.41,57.27-11.05,9.44-22.69,18.23-30.83,30.54-1.78-.71-1.06-1.92-.91-2.87,3.69-24.21,9.61-47.72,21.12-69.6,3.2-6.09,6.72-12.24,6.99-19.46-.65-1.26-1.49-.49-2.28-.21-.55,4.37-3.96,7.04-6.59,9.85-15.04,16.1-23.01,35.81-29.6,56.3-.09.29-.31.54-.46.82-3.49,1.54-2.73,5.09-3.37,7.77-2.76,11.61-5.23,23.3-6.8,35.15-.26,1.98-1.2,3.8-3.53,3.79-2.52-.01-3.27-2.37-3.13-4.04.83-9.92-2.66-19.28-4.16-28.81-1.86-11.79-4.56-23.7-9.81-34.77-4.25-8.97-8.36-17.98-14.02-26.19-1.64-2.37-3.45-4.49-5.72-6.24-3.42-3.87-8.05-6.63-10.49-11.4-.4-.02-.52-1.4-1.03-.36-.47.95-.63,2.12.15,3.13,3.14,11.44,9.75,21.44,13.52,32.63,5.77,17.12,10.1,34.57,12.14,52.54.04.38-.22.8-.54,1.88-10.24-13.87-23.97-23.31-36.16-34.43-17.43-15.91-20.39-36.26-16.16-58.35.86-4.49,2.3-8.86,3.47-13.29Z"/>
  <path class="cls-126" d="M228.99,238.56c.61.48,1.47,1.52,1.8,1.37,5.62-2.56,12.91.48,17.4-3.57,3.72-3.36,9.97-5.31,10.16-11.94.02-.67.76-1.32,1.17-1.98-1.64,12.7-3.1,25.41.85,37.96,1.27,4.04,2.84,7.99,4.77,13.35-9.21-3.89-19.04-3.93-26.24-9.95-7.57-6.33-9.17-15.81-9.9-25.25Z"/>
  <path class="cls-174" d="M364.88,502.8c-1.31.63-2.54,1.33-2.85,2.93-7.53-10.26-11.18-22.01-12.08-34.46-1.45-20.05-2.58-40.17.19-60.21,1.72-12.41,5.3-24.38,9.9-36.04.28,1.23.44,2.5.88,3.68,1.24,3.35,2.96,3.82,5.35.85,4.24-5.27,9.72-8.91,15.8-11.72-7.82,8.67-15.41,17.46-20.52,28.16-4.36,9.13-6.95,18.79-7.64,28.69-1.23,17.66-1.19,35.37,1.68,52.96,1.47,9.03,5.64,16.99,9.3,25.16Z"/>
  <path class="cls-116" d="M309.74,236.77c.33-1.22,1.01-1.06,1.65-.33,1.67,1.88,3.47,3.69,4.9,5.75,7.68,11.05,12.8,23.41,18.21,35.64,1.82,4.12,3.37,8.08,2.93,12.67-.13,1.36.17,2.9.72,4.17,2.64,6.07,3.52,12.37,3.09,18.93-.07,1.03.23,2.32.83,3.13,3.19,4.29,3.19,9.11,2.72,14.07-.17,1.84-.59,4.43,1.77,4.64,2.05.18,2-2.39,2.32-4.07,2.22-11.73,4.44-23.47,6.68-35.2.45-2.34,1.15-4.63,2.51-6.61,1.06-1.55,1.75-.75,2.2.56-3.8,12.16-6.36,24.68-8.32,37.18-2.81,17.92-4.5,36.06-4.17,54.29.02,1.2-.15,2.4-.26,4.15-2.81-2.13-3.27-4.63-3.56-7.29-1.3-11.83-.33-23.73-1.02-35.57-1.6-27.53-6.58-54.4-17.62-79.81-3.55-8.18-7.8-16.18-13.8-23.02-.8-.91-1.2-2.18-1.79-3.29Z"/>
  <path class="cls-7" d="M216.69,227.14c1.9.88,3.44.79,3.46-1.76.01-1.46-.31-2.89,1.8-2.91,2.09-.02,3.05,1.15,3.12,3.16-1.04-.18-2.73-3.91-2.92.6-.5,12.01-1.18,24.03,3.3,35.57.84,2.16.29,2.99-2.03,2.54-10.08-1.93-20.18-3.79-29.76-7.67.95-.33,2.55.48,2.8-.92.23-1.29-1.22-1.6-2.26-1.91-3.74-1.12-7.06-3.08-10.67-5.15,1.3-1.08,3.26.38,3.67-1.59,1.3-1.26,2.57-1.18,3.81.09,2.69,4.17,6.91,3.89,9.98-.7.52-.77,1.05-2.44,1.24-2.39,5.47,1.41,10.17-2.24,15.39-2.19.85,0,2.03,1.09,2.46-.12.79-2.26.49-4.69.17-7.02-.18-1.28-1.34-1.14-2.27-.97-.93.17-1.84.44-2.73.75-5.92,2.05-7.89.86-9.02-5.48.67-.48,1.57-.77,2.16-.33,3.41,2.53,5.86.51,8.33-1.61Z"/>
  <path class="cls-60" d="M272.93,538.09c-3.93-.48-7.89-.49-11.76.19-4.59.8-8.99.32-14.8-1,10.71-.56,20.17.19,29.19-3.02,15.17-3.16,29.03-9.05,40.87-19.31,4.77-4.14,8.65-8.98,12.22-14.12,1.18,1.14,2.56,2.12,2.98,3.84-3.78,7.61-10.12,12.86-16.77,17.66-12.51,9.04-26.31,14.9-41.93,15.76Z"/>
  <path class="cls-138" d="M347.76,493.3c1.81,16.18.52,32.45,1.33,48.66.27,5.34.68,10.71-.06,16.06-.3,2.21-.79,5.07-3.26,4.97-2.28-.09-3.17-2.75-3.11-5.13.11-4.09.31-8.19.48-12.28.89-6.59.3-13.21.37-19.82.11-11.05-.02-22.11.09-33.16.01-1.41-1.23-3.96,1.48-4.07,2.28-.09,2.3,2.12,2.32,3.91,0,.29.21.58.36.86Z"/>
  <path class="cls-36" d="M417.04,200.91c-2.81-4.37-5.81-8.64-8.39-13.14-4.27-7.45-10.75-11.67-18.88-13.7,0,0-.11.03-.11.03,3.13-1.11,6.28-.94,9.43-.08,12.19,6.36,19.16,17.64,26.72,28.35-1.66-.67-2.66-2.07-3.7-3.42-1.1-1.43-2-3.58-4.29-2.62-2.24.94-.45,3.04-.79,4.57Z"/>
  <path class="cls-55" d="M459.07,173.92c1.08.04,2.24-.13,2.87,1.1-2.81,2.82-6.48,4.35-9.74,6.47-4.38,2.85-7.32,7.18-11.24,10.5-.25-2.63-1.36-3.32-3.57-1.6-1.08.84-2.2,1.63-3.3,2.44,4.97-9.06,13.25-13.98,22.37-17.84.87-.37,1.74-.72,2.62-1.07Z"/>
  <path class="cls-51" d="M347.76,493.3c-1.03-1.18-1.05-3.37-3.77-3.2,0,15.92.03,31.98-.03,48.05,0,2.48.51,5.07-.83,7.42.17-20.24.34-40.48.52-60.73.02-1.89.3-3.8-.51-5.62-.32-1.82.05-3.51.98-5.09,1.75,6.28,2.83,12.69,3.64,19.16Z"/>
  <path class="cls-55" d="M425.84,202.39c3.16.34,2.32-3.06,3.96-4.28,1.82-1.35,2.29-4.04,4.35-5.34,0,4.69-4.12,7.01-6.16,10.51-.7,1.2-1.9.62-2.15-.89Z"/>
  <path class="cls-126" d="M256.46,216.76c1.33.3,2.66.6,3.99.89.2,1.71.14,3.37-.95,4.82-1.19-7.24-2.59,2.45-3.83-.05-2.31-2.25-.84-3.97.8-5.66Z"/>
  <path class="cls-1" d="M396.93,223.16c.1-1.87.69-3.56,1.97-5.36,1.37,1.93,1.13,3.72.31,5.57-.76-.07-1.52-.14-2.28-.21Z"/>
  <path class="cls-85" d="M298.37,228.14c-1.74-2.65-.98-5.63-1.24-8.52,1.62,1.64,1.86,3.7,2.12,5.75-.29.92-.59,1.85-.88,2.77Z"/>
  <path class="cls-7" d="M173.52,242.5c1.63.42,2.04-2.95,3.73-1.46,1.72,1.53,0,3.09-.7,4.56-1.01-1.03-2.02-2.07-3.03-3.1Z"/>
  <path class="cls-129" d="M468.33,536.9c2.76-1.32,5.73-1.64,8.71-1.89-2.55,2.27-5.59,2.27-8.71,1.89Z"/>
  <path class="cls-11" d="M477.34,191.17c5.59-3.1,11.94-3.9,17.87-5.98,5.4-1.05,5.47-.96,4.96,6.63-2.05,5.46-3.45,11.2-7.57,15.71-3.19,3.49-7.01,5.88-11.42,7.41-1.51.52-3.07.97-4.43-.42.33-.91.08-1.36-.72-1.39-2.49-.09-3.81-1.81-4.01-3.89-.39-4.2-.51-8.48.05-12.67.38-2.86,2.45-4.63,5.27-5.4Z"/>
  <path class="cls-56" d="M461.08,313.44c-1.51.79-3.01,1.58-5.54,2.9,4.33.16,7.52.18,10.72-.38,1.22-.21,2.8-.29,3.2,1.19.32,1.16-.94,1.97-1.85,2.52-3.12,1.91-6.62,2.97-10.07,4.1-11.54,3.77-23.07,7.59-34.65,11.21-1.17.37-4.3,3.19-3.73-1.55.71-2.66,1.96-4.75,4.58-6.16,4.58-2.46,8.56-5.87,12.7-9,1.67-1.26,2.73-2.99,4.01-4.59,4.47-5.59,10.21-8.65,17.6-7.91,4.62,2.3,5.06,3.44,3.01,7.65Z"/>
  <path class="cls-69" d="M535.04,282.91c.02,8.07-9.29,16.82-16.16,16.06-3.03-.33-5.31-2.01-6.36-4.97-1.51-4.27-3.88-8.6-.37-12.95,1.48-1.83,3.29-3.39,4.95-5.07,3.22-3.25,6.73-5.12,11.37-2.75,4.4,2.26,6.18,6.03,6.57,9.68Z"/>
  <path class="cls-132" d="M457.03,306.69c-6.83,1.76-12.7,4.8-17.42,10.43-4.12,4.92-9.65,8.47-15.25,11.69-2.09,1.2-3.9,2.6-5.19,4.63.12-4.67-.08-9.18-4.23-12.46-.98-.77-1.72-2.38-.89-3.42,2.33-2.94,2.82-6.43,3.9-9.82.77-2.41,3.21-4.25,5.97-5.02,3.05-.85,6.1-1.55,9.32-1.46,2.67.08,5.61.51,7.97-.42,3.55-1.39.62-4.75,1.09-7.21,1.76-9.2,13.62-14.76,21.72-9.86,2.42,1.46,4.86,2.92,6.74,5.16,1.94,2.32,1.35,4.91.64,7.21-.75,2.41-3.23.99-4.95,1.25.74-3.5.17-6.44-3.42-8.14-3.79-1.8-7.87-3.35-11.66-.92-3.31,2.13-4.54,5.9-4.42,9.91.06,2.06,1.15,2.89,3.12,2.14,2.5-.94,5-1.89,7.57-2.6,1.77-.49,3.7-1.22,5.14.78-.6,1.29-1.4,2.34-2.81,2.91-1.68.68-1.83,1.91-.91,3.36-.02,1.34-1.03,1.59-2.03,1.85Z"/>
  <path class="cls-54" d="M492.27,218.62c8.69-9.13,7.25-8.07,15.12.74.83.92,1.42,2.06,2.12,3.09.49,1.48.73,3.03,1.24,4.52,1.14,3.38.57,6.24-3.22,7.64-1.97,1.78-3.84,3.7-5.93,5.32-4.48,3.47-6.76,3.05-9.95-1.6-.8-1.16-1.49-2.39-2.22-3.59-.91-2.79-.96-5.73-1.68-8.58-.91-3.64,1.02-6.22,4.52-7.54Z"/>
  <path class="cls-143" d="M563.46,253.36c-.58,6.28-3.93,11.26-8.78,15.32-3.25,2.73-6.68,5.24-10.01,7.88-3.75,2.97-4.84,2.71-6.93-1.75-.4-.86-.81-1.71-1.16-2.59-3.38-8.5-2.49-10.65,6.25-13.36,6.07-1.88,11.55-4.87,17-7.98,2.65-1.51,3.84-.79,3.63,2.47Z"/>
  <path class="cls-171" d="M388.55,333.53c2.72-6.2,13.87-11.79,19.84-10.03,1.57.47,1.69,1.62,1.9,2.9,1.46,9.24-1.8,15.62-10.19,19.85-.98.5-1.95,1.01-2.92,1.52-2.97,1.35-5.52,1.83-5.7-2.71-.03-.77-.12-1.74-.8-2.11-4.31-2.37-2.69-6-2.12-9.43Z"/>
  <path class="cls-100" d="M494.53,308.42c1.98-2.41,4.5-4.2,5.32-7.15.2-.72.83-1.39.21-2.25-1.61-.31-2.02,1.13-2.72,2.03-.93,1.18-1.24,3.27-3.27,2.83-1.62-.35-2.37-2-3.01-3.43-3.61-8.04-.36-17.11,7.39-21.47,1.65-.93,2.35-.31,3.06.75,3.25,4.86,6.43,9.78,6.74,15.87.37,7.37-6.04,13.55-13.72,12.82Z"/>
  <path class="cls-42" d="M462.78,298.57c-4.36.81-8.4,2.6-12.51,4.16-5.06,1.91-5.87,1.32-5.74-3.91.14-5.67,1.64-10.82,7.18-13.3,4.87-2.19,12.66.58,16.66,5.23,2.98,3.46,2.76,4.22-1.93,6.66-1.22.39-2.45.79-3.67,1.18Z"/>
  <path class="cls-2" d="M543.49,325.12c1.01-5.89,6.09-4.54,9.42-4.44,7.62.23,15.02,2.83,22.97,2.7-6.89,9.42-19.2,15.47-30.33,7.34-2.72-1.11-2.84-3.19-2.06-5.59Z"/>
  <path class="cls-96" d="M551.16,276.57c4.35-5.08,10.48-6.75,16.56-8.17,3.13-.73,3.24,2.28,3.36,4.45.33,6.2-5.14,14.41-11.11,16.79-1.31.52-2.68.88-4.03,1.32-2.44.56-3.37-1.17-4.08-2.9-.66-1.6-1.39-3.09-2.58-4.35-1.41-2.91,1.18-4.77,1.87-7.13Z"/>
  <path class="cls-162" d="M457.47,234.78c-11.63-.12-16.78-4.47-17.85-14.01-.18-1.62-.28-3.04,1.74-3.02,6.14.03,12.31-.02,17.3,4.62,2.39,2.22,2.74,5.51,4.7,8.01,1.16,1.47.26,3.77-2.25,4.17-1.55.24-3.14.21-3.64.24Z"/>
  <path class="cls-184" d="M457.03,306.69c.68-.61,1.35-1.23,2.03-1.84,6.83-3.16,13.41-6.95,21.43-6.36,3.11.23,4.1.95,3.5,4.22-1.22,6.59-3.95,9.68-10.65,10.38-4.05.42-8.17.26-12.25.35-.12-2.99-.94-5.56-4.05-6.75Z"/>
  <path class="cls-74" d="M470.54,212.9c-4.16,5.13-6.87,5.12-13.38-.05-2.43-5.6-4.44-11.29.12-16.72,3.48-4.15,8.58-4.75,13.54-2.03,2.44,5.08.1,10.55,1.29,15.73.33,1.43-.29,2.43-1.57,3.06Z"/>
  <path class="cls-7" d="M543.49,325.12c-.06,2.14.59,4.02,2.06,5.59-1.9-.1-3.32.97-4.78,1.94-.15-.03-.38-.02-.45-.11-5.66-7.43-14.1-5.74-21.75-6.66,3.68-1.26,7.49-.08,11.69-.57-2.59-3.93-7.05-3.89-10.8-5.99,2.24-2.09,4.42-3.63,7.03-4.55-.46,2.16.87,1.56,1.92,1.18,2-.72,3.21-2.47,4.83-3.7,2.26-1.72,4.57-2.67,5.69,1.21.35,1.22,1.1,1.76,2.28,2.06,4.51,1.15,3.98,3.24,1.03,5.78-.59.51-1.17,1.08-1.58,1.74-1,1.58-1.48,3.77.11,4.69,2.48,1.43,1.47-2.03,2.73-2.61Z"/>
  <path class="cls-173" d="M453.97,253.32c-5.41-.09-11.36-6.89-10.92-12.43.18-2.3,1.72-2.5,3.38-2.1,2.81.67,5.64.71,8.49.8,3.57.12,6.23,1.18,6.01,5.52-.22,4.47-3.36,8.27-6.95,8.21Z"/>
  <path class="cls-152" d="M492.27,218.62c-3.79,4.87-2.81,10.59-2.85,16.12-.79-1.84-1.15-4.76-2.47-5.29-2.1-.84-2.39,2.75-4.33,3.53-1.77.71-2.84,3.36-5.29,2.09-2.3-1.2-2.4-3.58-2.43-5.77-.11-6.57.91-7.97,7.61-8.7,3.36-.37,5.99-4.05,9.77-1.99Z"/>
  <path class="cls-71" d="M507.53,234.62c2.11-3.82,2.02-7.99,1.98-12.16,2.44,4.17,6.57,7.19,5.12,13.46-1.33,5.78-4.07,9.73-8.66,12.85-1.55,1.05-3.25,2.57-4.9.29-1.53-2.12-1.86-4.38.31-6.4,1.73-1.61,3.53-3.16,5.25-4.78.93-.88,1.88-1.82.9-3.26Z"/>
  <path class="cls-97" d="M469.57,194.84c-3.29-3.39-6.2,0-8.73,1.06-2.99,1.26-5.2,4.33-4.43,8.07.61,2.97.65,5.91.75,8.89-5.55-4.33-5.26-18.59.45-22.69,1.09-.78,2.56-1.48,3.51-.81,3.7,2.57,7.98,2.1,12.04,2.77.56,3.22-1.97,2.36-3.58,2.71Z"/>
  <path class="cls-68" d="M469.57,194.84c.96-1.21,2.92-1.11,3.59-2.71,1.2-1.15,2.67-1.13,4.18-.96-5.57,5.35-4.33,12.09-3.5,18.59.35,2.71,1.9,3.53,3.75.52.78-1.27,2.2-2.14,3.66-2.95-.92,2.78-2.45,5.14-4.5,7.2-2.07-.54-4.14-1.08-6.2-1.62-.01-6.04.57-12.11-.97-18.07Z"/>
  <path class="cls-187" d="M542.66,298.44c-.53-2.09-2.63-2.06-4.02-2.99,2.58-3.78,5.15-7.56,7.73-11.34,3.1-1.21,3.31-.96,3.1,3.63-.24.5-.59.9-1.04,1.22-2.38,2.88-2.73,7-5.76,9.48Z"/>
  <path class="cls-53" d="M388.55,333.53c.41,2.72-.9,6.07,3.07,7.45,1.02.35.9,1.92.84,2.99-.2,3.51,1.73,4.28,4.71,3.82-3.45,2.01-7.32,5.15-7.09-2.66-6.7-3.05-2.48-7.53-1.53-11.59Z"/>
  <path class="cls-7" d="M548.42,288.96c-.09-.31-.08-.62.03-.92,1.31-1.38-1.03-4.03,1.72-4.9,4.27.87,3.02,5.81,5.77,7.81-3.74,3.99-5.41.19-7.52-1.99Z"/>
  <path class="cls-92" d="M550.17,283.14c-1.4,1.34-.22,3.59-1.72,4.9-.5-1.42,1.03-3.91-2.09-3.94,1.16-2.79,2.04-5.77,4.8-7.54,1.33.39,1.19,1.15.43,1.95-1.25,1.32-1.35,2.96-1.42,4.62Z"/>
  <path class="cls-7" d="M542.47,307.06c1.96,4.67,5.02-.41,7.56.94-.37,1.36-3.36,1.57-1.93,3.76-1.48-2.04-6.26-.13-5.62-4.7Z"/>
  <path class="cls-7" d="M572.07,297.36c-5.04,0-10.07,0-15.11,0,5.04-1.33,10.07-1.32,15.11,0Z"/>
  <path class="cls-7" d="M500.17,191.82c-.13-3.35.77-7.47-4.96-6.63,1.38-1.08,3.08-2.44,4.52-.85,1.96,2.16,1.36,4.91.44,7.48Z"/>
  <path class="cls-187" d="M535.56,306.97c.38-3.91,3.68-5.42,6.21-7.55-1.21,3.23-4.38,4.84-6.21,7.55Z"/>
  <path class="cls-7" d="M526.43,200.51c.37-3.84-.21-7.6-.86-11.36,2.73,3.6,2.43,7.43.86,11.36Z"/>
  <path class="cls-67" d="M509.41,327.03c4.49,1.98,9.34.08,14.34,1.28-1.58,3.23-4.2,5.15-6.69,7.15-4.15,3.32-4.34,6.56-.96,10.47,1.97,2.29,3.84,4.54,6.64,5.87,1.44.69,1.83,2.09,1.85,3.58.03,2.16.92,3.62,3.15,4.06.85,1.93.72,3.56-1.38,4.6-2.38.09-2.8,1.61-2.62,3.58.15,1.61.96,2.68,2.58,2.92,3.09.45,6.13.43,7.82,4.11.72,1.56,3.15-.6,4.83-.1-5.33,3.07-11.3,3.89-17.22,4.61-17.82,2.15-34.9-1.41-51.68-7.08-5.83-1.97-11.68-3.88-17.48-5.95-11.3-4.03-22.88-5.22-35.46-3.11,1.78-2.63,3.89-3.47,5.8-4.35,27.14-12.56,55.13-22.88,83.74-31.54.9-.27,1.8-.64,2.74-.09Z"/>
  <path class="cls-127" d="M542.44,373.4c3.9-2.71,7.81-5.42,12.25-7.23,1.02,2.34-.9,3.39-2.15,4.61-2.31,2.26-4.77,4.36-7.17,6.52,1.23-2.95.68-4.57-2.92-3.91Z"/>
  <path class="cls-7" d="M222.19,423.06c.06.92.12,1.83.19,2.75-3.21-3.28-2.16-7.65-2.8-11.55-.46-2.76-.16-5.67-.09-8.5.05-1.72-.14-3.34-2.09-3.67-1.87-.32-2.13,1.64-2.78,2.73-.78,1.32-1.02,2.96-1.64,4.4-.69,1.61-1.99,2.39-3.79,2.19-.87-.1-1.59-.51-1.64-1.4-.09-1.61.82-2.73,2.28-3.23,2.56-.89,3.31-2.74,2.95-5.2-.42-2.91-1.73-1.22-2.83-.5-2.41-1.67-3.26-3.79-1.94-6.56,2.41-.33,4.35-4.05,7.36-.79.67.72,2.1-.94,2.31-1.79.98-4.02,3.75-3.69,6.74-3.1-4.2,11.19-5.55,22.56-2.23,34.24Z"/>
  <path class="cls-110" d="M153.85,379.36c-5.15-2.51-8.39-6.99-11.67-11.4-.52-.7-1.45-1.54-.45-2.42.87-.76,1.85-.09,2.55.46,3.19,2.47,6.32,5.03,9.47,7.55-2.28-.24-4.21-.19-2.16,2.84.7,1.03,1.5,1.99,2.26,2.98Z"/>
  <path class="cls-7" d="M189.08,379.27c4.15-.76,7.89-4.25,12.51-1.87-4.06,1.36-8.19,2.23-12.51,1.87Z"/>
  <path class="cls-7" d="M226.15,419.14c-.01-1.26-.03-2.52-.04-3.79,1.11-2.77.39-5.94,1.9-8.61.26,4.27-.24,8.42-1.86,12.4Z"/>
  <path class="cls-7" d="M206.19,376.43c2.62-2.1,5.68-2.11,8.8-1.86-2.85,1.03-5.69,2.08-8.8,1.86Z"/>
  <path class="cls-7" d="M156.96,374.79c3.19-.64,5.82.67,8.33,2.4-3.02.06-5.57-1.54-8.33-2.4Z"/>
  <path class="cls-120" d="M191.99,433.54c-3.75-.34-7.46-.8-11.12-1.79-2.73-.74-3.2-1.89-2.04-4.37,4.9-10.54,18.92-17.08,30.2-13.99,6.64,1.82,8.39,5.81,4.91,11.7-2.62,4.44-5.82,8.28-11.61,8.46-3.44.53-6.89.56-10.33-.01Z"/>
  <path class="cls-109" d="M208.01,394.5c1.25,2.01,2.22,4.1,1.94,6.56-3.24,6.08-8.45,8.59-15.17,8.66-2.33.02-3.3-.42-3.34-3.11-.11-7.08,4.72-12.28,11.82-12.22,1.58.01,3.17.06,4.75.1Z"/>
  <path class="cls-7" d="M178.69,374.59c-7.22.39-14.46,1.51-20.58-3.57,3.81,1.06,7,.08,10.67-1.18,3.59-1.23,6.75,2.58,9.9,4.75Z"/>
  <path class="cls-62" d="M141.54,363.07c-.35-4.91-1.45-9.5-5.38-12.91-.88-.77-1.46-1.82-.89-2.9.86-1.62,2.19-.24,3.32-.28,3.14,3.87,4.36,8.58,5.74,13.21.75,2.53-.75,2.98-2.78,2.88Z"/>
  <path class="cls-70" d="M151.12,387.92c5.52-2.88,10.02,1.32,15.03,2.1.22.03.59.95.47,1.1-.37.43-1.03,1.02-1.43.93-1.83-.44-3.62-1.05-5.41-1.67-2.82-.97-5.68-1.77-8.66-2.45Z"/>
  <path class="cls-7" d="M201.32,370.6c.94-.91,1.88-1.83,2.82-2.74,2.06,1.07,4.65.72,6.74,2.52-3.27,2.46-6.48-.42-9.56.22Z"/>
  <path class="cls-7" d="M144.36,321.14c-4.71,0-9.42,0-14.13,0,4.71-1.34,9.42-1.36,14.13,0Z"/>
  <path class="cls-7" d="M209.04,365.92c3.8,0,7.59,0,11.39,0-3.8,1.49-7.59,1.47-11.39,0Z"/>
  <path class="cls-7" d="M191.99,433.54c3.44,0,6.89,0,10.33.01-3.45,1.28-6.89,1.28-10.33-.01Z"/>
  <path class="cls-7" d="M133.04,333.67c3.47,0,6.93,0,10.4,0-3.47,1.39-6.93,1.4-10.4,0Z"/>
  <path class="cls-37" d="M179.46,236.9c-1.43-1.84-.38-3.47.27-5.27,2.35-6.54,6.24-11.91,11.33-16.61,2.21-2.03,3.38-1.4,4.88.54,4.51,5.86,6.59,12.49,6.28,19.85-.21,5-2,6.61-7.45,6.95-2.08.98-3.23-.26-4.36-1.88-.3,1.82-.96,3.42-2.81,4.01-1.74.56-2.41-1.12-3.53-1.87-2.14-1.44-3.4-3.55-4.62-5.71Z"/>
  <path class="cls-159" d="M232.43,192.97c.95,0,1.9-.06,2.84,0,7.93.56,11.18,6.23,7.17,13.16-2.83,4.89-7.13,8.45-12.68,10.07-4.16,1.21-6.25-.49-6.58-4.84-.2-2.67-.57-5.32-.73-7.99-.54-8.94,1.06-10.59,9.98-10.41Z"/>
  <path class="cls-146" d="M256.46,216.76c-.27,1.89-.53,3.78-.8,5.66-3.07,7.84-9.79,12.73-17.12,12.45-5.15-.2-7.29-3.75-4.86-8.37,1.91-3.62,4.99-6.14,8.89-7.33,4.51-1.37,9.08-2.66,13.88-2.42Z"/>
  <path class="cls-182" d="M216.69,227.14c-.77,6.03-3.44,7.2-8.26,3.62-.75-.55-1.48-1.12-2.22-1.68.08-2.72-2.03-4.47-2.96-6.75.73-2.63,2.35-1.61,3.88-.95,3.78.94,7.41,2.12,9.57,5.76Z"/>
  <path class="cls-170" d="M179.46,236.9c1.49,1.57,2.89,3.23,4.5,4.67.94.84,1.8,2.68,3.47,1.52,1.2-.83,1.56-2.31,1.36-3.83-.11-.86-.97-1.72.18-2.82,2.18,1.71,3.11,4.75,5.8,5.93.26,2.8-1.77,3.81-3.77,4.85-1.27-.03-2.54-.06-3.81-.09-1.94-3.89-7.43-5.09-7.74-10.22Z"/>
  <path class="cls-7" d="M207.12,221.38c-1.35.07-2.74,0-3.88.95-.98-1.58-2.31-3.73.06-4.59,2.5-.91,2.71,2.19,3.82,3.64Z"/>
  <path class="cls-29" d="M383.91,173.89c-10.93,13.63-20.55,27.97-25.22,45.13-3.17,11.65-2.65,23.56-2.65,35.39,0,11.77-4.86,22.03-8.71,34.12-3.17-11.33-6.93-20.95-6.63-31.71.34-12.45,1.43-25.02-2.25-37.27-5.09-16.93-14.39-31.41-25.8-44.69-.64.49-1.19.21-1.74-.18-1.17-1.29-1.64-2.9-2.08-4.52-.36-.9-.71-1.81-1.07-2.71-.74-3.71,1.56-2.99,3.68-2.53,1.32.35,1.75,1.57,2.46,2.52,1.47,2.18,3.1,4.2,5.49,5.46,3.1,2.9,6.2,5.8,9.3,8.7,2.54,2.89,5.07,5.78,7.61,8.67,3.27,5.65,6.57,11.29,9.79,16.96,1.4,2.47,1.95,2.61,3.32-.26,4.48-9.35,10.81-17.51,17.41-25.45,2.5-1.52,4.09-4.09,6.55-5.66,5.75-4.24,11.02-9.16,18.65-13.1-3.19,4.37-5.66,7.75-8.13,11.14Z"/>
  <path class="cls-49" d="M437.07,180.55c-4.66.8-5.54,5.97-9.2,7.96-1.04.57-1.59,2.04-3.15,1.65-3.37-.84-11.14-11.58-10.87-15.05.14-1.8,1.44-2.82,2.77-3.59,4.63-2.68,8.9-5.98,13.89-8.03,1.4.7,2.17,1.98,2.26,3.39.31,4.94,2.57,9.22,4.31,13.68Z"/>
  <path class="cls-123" d="M397.34,157.79c3.16-3.6,7.43-5.28,11.86-6.28,5.03-1.14,9.91-2.7,15.2-4.21-3.77,6.79-5.57,14.65-11.94,19.88-1.43-3.78-4.52-4.98-8.19-5.75-2.54-.53-5.16-1.41-6.93-3.64Z"/>
  <path class="cls-5" d="M397.34,157.79c5.11-.22,9.64,2.3,14.48,3.35,3.17.69.84,3.92.64,6.04-4.43,4.42-9.59,4.53-15.18,2.77-2.53-.8-3.1-2.04-2.14-4.51.95-2.46,1.49-5.09,2.21-7.64Z"/>
  <path class="cls-73" d="M437.07,180.55c-7.15-3.78-5.55-10.92-6.56-17.06,2.76-1.27,5.4-1.51,7.83.77,2.73,2.57,3.15,5.81,2.14,9.1-.77,2.51-2.24,4.81-3.41,7.2Z"/>
  <path class="cls-20" d="M441.26,147.47c2.22,2.05,3.09,4.9,4.15,7.53.75,1.85.22,3.86-1.73,4.92-1.66.91-2.61-.58-3.55-1.56-2.04-2.11-3.69-4.46-2.5-7.6.57-1.51,1.81-2.52,3.64-3.29Z"/>
  <path class="cls-7" d="M434.26,142.56c0,.65,0,1.29,0,1.94-2.28,1.65-3.09,3.81-2.36,6.57.35,1.33.99,2.77-.28,3.92-.26.24-1.3.04-1.64-.29-1.3-1.27-4.14-2.88-3.23-4.1,2.15-2.9,2.43-7.86,7.51-8.04Z"/>
  <path class="cls-115" d="M373.39,175.86c-2.06,2.03-3.59,4.68-6.55,5.66,1.82-2.3,3.44-4.85,6.55-5.66Z"/>
  <path class="cls-7" d="M426.81,143.2c-.67-.14-1.23-.49-1.18-1.21.05-.89.62-1.48,1.53-1.46.72.02,1.09.59,1.12,1.27.03.97-.51,1.43-1.47,1.39Z"/>
  <path class="cls-176" d="M399.09,174.02c-3.15-.69-6.29-.33-9.43.08,3.13-1.77,6.27-1.67,9.43-.08Z"/>
  <path class="cls-144" d="M527.75,418.1c-14.13-.01-21.29-6.27-23.52-20.52-.33-2.1.45-2.79,2.3-3.22,13.6-3.16,28.23,7.46,29.27,21.26.14,1.87-.53,2.59-2.38,2.5-1.88-.09-3.78-.02-5.67-.02Z"/>
  <path class="cls-19" d="M490.81,393.48c8.09.1,12.66,5.16,11.89,13.13-.14,1.48-.31,2.72-2.15,3.18-5.27,1.31-14.23-3.03-16.51-8.13-2.62-5.86-.63-8.27,6.76-8.17Z"/>
  <path class="cls-7" d="M551,376.38c-.94,1.42-1.68,3.05-2.87,4.21-3.19,3.09-3.01,5.47,1.08,7.39-1.39,1.25-3.01,1.79-4.87,1.58-.83-1.34-3.05-.15-3.6-1.99,1.41-.55,1.65-1.85,2.34-2.91,2.04-3.12,4.02-6.77,7.93-8.28Z"/>
  <path class="cls-154" d="M540.74,387.56c1.1.85,3.98-1.53,3.6,1.99-4.74-.16-9.18,3.34-14.89,1.24,3.92-2.38,7.75-2.31,11.29-3.23Z"/>
  <path class="cls-7" d="M554.13,388.9c3.43,0,6.86.01,10.29.02-3.43,1.22-6.86,1.2-10.29-.02Z"/>
  <path class="cls-153" d="M306.66,142.2c-.33,1.98-.39,4.25-1.73,6.1-1.98,2.72-3.86,4.76-7.57,1.73-3.63-2.97-8.08-4.82-11.8-7.84-5.99-4.86-6.57-14.07-3.1-19.59,1.04-1.66,2.3-2.35,3.88-1.4,5.62,3.38,11.94,5.64,16.39,10.94,2.49,2.97,3.57,6.19,3.93,10.06Z"/>
  <path class="cls-133" d="M312.61,158.78c.21-6.84,1.21-7.34,7.4-4.08,1.92,1.01,4.05,1.6,6.1,2.34,2.71.97,4.63,2.57,4.73,5.69-.66,1.21-1.3,2.44-2,3.63-2.5,4.25-5.77,4.65-9.65,1.87-1.86-1.91-4.66-2.92-5.55-5.76-.35-1.23-.69-2.46-1.04-3.7Z"/>
  <path class="cls-7" d="M313.65,162.47c1.85,1.92,3.7,3.84,5.55,5.76-.84-.41-1.69-.81-2.51-1.24-.51-.27-1.01-1.13-1.55-.4-.25.35.15,1.18.26,1.79-.63.43-1.24.38-1.83-.08-.68-.63-1.37-1.26-2.05-1.89-1.18-2.04-5.31-.99-4.91-4.69q2.46-1.78,7.04.75Z"/>
  <path class="cls-176" d="M308.84,170.16c1.29,1.02,2.85,1.82,2.96,3.76-2.32,1.98-4.34,5.27-7.9,1.81.54-.64,1.85-.51,1.87-1.6.01-.99-1.09-.75-1.66-1.13.7-2.41,3.14-1.91,4.73-2.84Z"/>
  <path class="cls-118" d="M306.61,161.72c1.2,2.01,3.88,2.48,4.91,4.69-1.34.03-3.09-1.45-3.75,1.04-2.45-1.65-2.86-4.71-4.64-6.82,1.31-2.53,1.91-.24,2.76.41.24.23.48.45.72.68Z"/>
  <path class="cls-7" d="M305.88,161.04c-.91-.19-1.66-1.49-2.76-.41-1.02-1.12-2.17-2.15-2.33-4.25,2.86.53,4.09,2.45,5.09,4.66Z"/>
  <path class="cls-157" d="M535.34,352.69c-9.01-.16-14.36-2.93-17.82-8.9-1.45-2.5-1.9-4.49,1.25-6.74,8.42-6,13.9-6.47,22.63-1.03,2.4,1.5,4.54,3.56,7.39,4.19,3.56.78,3.82,1.86,1,4.28-6.89,5.92-11.29,8.22-14.45,8.2Z"/>
  <path class="cls-28" d="M526.35,364.04c.18-1.62.26-3.26,1.38-4.6,5.14-1.82,10.77-2.02,15.6-4.88,2.27-1.35,4.21-.89,4.16,2.06-.11,6.88-6.44,12.9-13.16,13.14-4.31.16-6.85-1.69-7.99-5.72Z"/>
  <path class="cls-59" d="M256.62,403.92c-5.43-.02-10.23-1.74-14.13-5.59-2.15-2.12-2.17-4.09.09-6.49,7.85-8.31,20.41-9.1,29.06-1.59,3.09,2.69,2.08,7.23-2.43,10.05-3.82,2.39-8.02,3.67-12.59,3.62Z"/>
  <path class="cls-142" d="M332.66,170.18c4.33-4.62,4.98-10.91,7.24-16.67,3.74,5.05,3.48,13.63-3.51,20.35-2.11.76-3.51,4.85-5.55,3.04-1.81-1.59,1.74-4.23,1.83-6.72Z"/>
  <path class="cls-130" d="M530.37,224.88c-1.06,3.76-2.19,6.01-4.23,7.95q-.39-3.75,4.23-7.95Z"/>
  <path class="cls-75" d="M259.82,303.02c2.18.31,4.39.47,6.53.94,8.72,1.91,12.92,10.27,9.37,18.49-1.73,3.99-4.41,5.22-8.31,3.26-6.84-3.44-12.45-8.06-13.43-16.38-.72-6.14-.47-6.38,5.84-6.31Z"/>
  <path class="cls-124" d="M250.86,299.09c.53,3.41-1.24,4.5-4.72,3.64-6.13-1.53-12.34-2.94-17.97-5.89-4.58-2.4-4.89-4.85-.94-8.3,4.42-3.86,9.71-5.21,15.42-3.16,4.85,1.75,8.2,7.41,8.2,13.71Z"/>
  <path class="cls-7" d="M333.58,148.23c-1.96-1.86-3.92-3.72-5.89-5.59,3.14.62,4.91,2.68,5.89,5.59Z"/>
  <path class="cls-118" d="M313.57,168.3c.61.03,1.22.05,1.83.08,1.33,1.5,2.67,3.01,4,4.51-2.81-.44-4.3-2.53-5.83-4.59Z"/>
  <path class="cls-7" d="M359.24,136.89c.81-3.34,2.01-6.51,4.01-9.33.33,3.83-.1,7.33-4.05,9.3,0,0,.04.04.04.04Z"/>
  <path class="cls-3" d="M303.89,175.73c3.02,1.1,5.05-2.14,7.9-1.81.29.31.58.62.87.94-3.86,3-6.5,8.19-12.65,7.09-2.35-.42-4.26.66-6.24,1.69-1.27.65-2.22,2.53-4.11,1.38,2.46-4.8,6.18-7.8,11.69-8.37.87-.09,1.7-.6,2.55-.92Z"/>
  <path class="cls-139" d="M294.33,270.9c-8.94,0-17.29-7.87-18.01-16.72-.19-2.29.95-2.37,2.52-2.19,5.04.56,10.07.46,15.14.27,3.87-.14,7.5,1.25,9.82,4.79,1.9,2.89,4.99,6.06,3.33,9.34-1.74,3.43-6.05,4.23-9.95,4.51-.95.07-1.9,0-2.85,0Z"/>
  <path class="cls-27" d="M406.45,252.72c2.83,0,4.41-.01,5.98,0,5.68.04,7.03,2.13,4.91,7.35-5.18,12.74-16.63,12.69-25.96,8.69-3.51-1.5-3.21-4.25-1.77-7.12,3.77-7.54,10.03-10.05,16.84-8.91Z"/>
  <path class="cls-136" d="M418.18,236.94c-.86,3.55.29,7.7-2.77,10.61-3.45,3.29-14.39,3.1-17.91-.13-.76-.7-.96-1.51-.93-2.53.23-7.76,7.24-16.56,14.86-18.39,2.87-.69,5.41-.45,5.85,3.4.27,2.34,1.21,4.59.9,7.04Z"/>
  <path class="cls-161" d="M322.15,238.66c-6.97.03-10.38-2.58-10.46-8.01-.11-6.81,6.16-13.06,13.14-13.09,6.6-.03,9.67,3.27,9.51,10.25-.15,6.71-4.76,10.82-12.19,10.85Z"/>
  <path class="cls-114" d="M293.73,213.85c-.63-.36-1.26-.72-1.89-1.08-3.94-3.12-5.12-7.39-4.27-12.03.78-4.22,1.66-8.45,4.86-11.92,2.76-2.99,4.59-3.92,8.06-1.7,4.01,2.55,7.89,5.5,8.24,10.81.44,6.88-2.59,12.2-8.2,15.97-2.06,1.39-4.53.8-6.8-.05Z"/>
  <path class="cls-113" d="M397.36,187.33c3.12-1.54,5.17.4,6.93,2.41,6.41,7.35,5.38,16.99-2.34,23.24-7.43,1-15.01-5.51-15.06-12.83-.02-2.34,1.76-3.58,2.84-5.26h-.01c1.85-3.22,4.31-5.84,7.65-7.57Z"/>
  <path class="cls-185" d="M362.08,227.91c-.06-7.2,3.66-11.12,10.49-11.07,4.8.03,9.29,5.44,9.32,11.22.03,5.22-4.05,9.46-9.08,9.43-6.97-.03-10.68-3.35-10.74-9.58Z"/>
  <path class="cls-72" d="M315.51,193c3.06-2.59,4.79-1.62,6.35,1.86,2.49,5.55.36,10.2-3.05,13.94-4.29,4.7-9.18,9.18-16.56,7.83-1.58-1.85-.87-3.32.6-4.89,3.03-3.24,5.25-6.85,5.62-11.5.33-4.17,3.52-5.96,7.04-7.24Z"/>
  <path class="cls-14" d="M396.12,214.89c-.28,1.34-1.28,1.82-2.46,1.72-8.69-.78-18.3-5.53-19.96-16.3-.15-.97.01-1.89.71-2.65,1.59-3.08,4.06-5.1,7.55-4.19,3.07.8,4.65,3.22,4.9,6.62.3,4.07,2.65,7.25,5.35,10.17,1.37,1.48,3.1,2.68,3.91,4.64Z"/>
  <path class="cls-24" d="M315.51,193c-5.01,4.34-6.2,10.88-9.28,16.32-1.35,2.4-4.34,3.98-3.98,7.3-2.73-1.27-6.09-.58-8.52-2.78,6.24-.26,11.71-4.61,13.01-10.32,1.29-5.72-2.32-13.49-7.38-16.27-2.62-1.44-4.2.04-5.74,1.67-6.27,6.63-6.87,15.11-1.77,23.85-1.89-.03-2.61-1.38-3.43-2.82-3.79-6.63-1.01-18.42,4.75-23.51,3.59-3.17,7.03-.66,9.93,1.24,3.61,2.37,7.08,4.72,11.48,5.2.31.03.63.07.94.11Z"/>
  <path class="cls-89" d="M396.12,214.89c-5.43-3.43-9.72-7.87-11.11-14.3-1.31-6.05-1.97-6.6-7.62-4.3-1.01.41-1.99.91-2.98,1.37-.24-3.55,1.38-6.33,3.72-8.79,1.27-1.33,2.48-3.28,4.59-2.68,2.3.66,2.86,3.09,2.61,5.02-.52,3.94,1.42,4.27,4.39,3.68-1.34,5.51-.51,10.39,3.56,14.69,2.46,2.6,5.09,4.02,8.67,3.4-1.63,1.58-4.2.29-5.82,1.91Z"/>
  <path class="cls-89" d="M397.36,187.33c-2.55,2.53-5.1,5.05-7.65,7.58.5-4.59,3.4-6.77,7.65-7.58Z"/>
  <path class="cls-12" d="M433.81,304c6.21-.43,6.01-.45,5.27,5.71-1.04,8.64-6.95,12.95-13.91,16.47-2.7,1.36-4.4.31-5.76-2.16-5.04-9.19.24-19.12,10.62-19.85,1.26-.09,2.52-.11,3.78-.17Z"/>
  <path class="cls-91" d="M477.93,366.42c-2.19-.26-4.41-.37-6.57-.79-6.13-1.19-6.85-2.91-3.67-8.3,4.87-8.24,14.34-11.54,23.79-8.54,2.34.74,2.35,2.08,2.17,3.95-.8,8.53-6.64,13.58-15.72,13.68Z"/>
  <path class="cls-98" d="M505.57,359.28c3.19-.28,5.95.65,8.74,1.89,3.32,1.48,3.73,3.18,1.65,6.1-3.91,5.46-10.13,7.76-16.61,5.83-.6-.18-1.21-.4-1.74-.72-2.17-1.34-6.48-.67-6.41-3.69.07-3.39,3.12-6.02,6.3-7.68,2.54-1.32,5.25-2.14,8.07-1.73Z"/>
</svg>